<?xml version="1.0" encoding="UTF-8"?>
<svg xmlns="http://www.w3.org/2000/svg" xmlns:xlink="http://www.w3.org/1999/xlink" width="100pt" height="59pt" viewBox="0 0 100 59" version="1.1">
<defs>
<filter id="alpha" filterUnits="objectBoundingBox" x="0%" y="0%" width="100%" height="100%">
  <feColorMatrix type="matrix" in="SourceGraphic" values="0 0 0 0 1 0 0 0 0 1 0 0 0 0 1 0 0 0 1 0"/>
</filter>
<mask id="mask0">
  <g filter="url(#alpha)">
<rect x="0" y="0" width="100" height="59" style="fill:rgb(0%,0%,0%);fill-opacity:0.2;stroke:none;"/>
  </g>
</mask>
<clipPath id="clip1">
  <rect x="0" y="0" width="100" height="59"/>
</clipPath>
<g id="surface5" clip-path="url(#clip1)">
<path style=" stroke:none;fill-rule:nonzero;fill:rgb(0%,0%,0%);fill-opacity:1;" d="M 26.804688 13.960938 L 86.660156 13.960938 L 86.660156 47.996094 L 26.804688 47.996094 Z M 26.804688 13.960938 "/>
</g>
</defs>
<g id="surface1">
<path style=" stroke:none;fill-rule:nonzero;fill:rgb(42.352941%,38.823529%,100%);fill-opacity:1;" d="M 5.640625 55.304688 C 5.519531 55.308594 5.402344 55.347656 5.304688 55.421875 C 5.019531 54.664062 4.582031 54.179688 4.085938 54.179688 C 3.589844 54.179688 3.152344 54.664062 2.867188 55.421875 C 2.769531 55.347656 2.652344 55.308594 2.53125 55.304688 C 1.972656 55.304688 1.515625 56.261719 1.515625 57.445312 L 6.65625 57.445312 C 6.65625 56.261719 6.199219 55.304688 5.640625 55.304688 Z M 5.640625 55.304688 "/>
<path style=" stroke:none;fill-rule:nonzero;fill:rgb(24.705882%,23.921569%,33.72549%);fill-opacity:1;" d="M 0 57.324219 L 26.066406 57.324219 L 26.066406 57.5625 L 0 57.5625 Z M 0 57.324219 "/>
<path style=" stroke:none;fill-rule:nonzero;fill:rgb(42.352941%,38.823529%,100%);fill-opacity:1;" d="M 98.292969 50.285156 C 98.171875 50.289062 98.054688 50.328125 97.960938 50.402344 C 97.675781 49.644531 97.234375 49.160156 96.738281 49.160156 C 96.246094 49.160156 95.804688 49.644531 95.519531 50.402344 C 95.425781 50.328125 95.308594 50.289062 95.1875 50.285156 C 94.625 50.285156 94.167969 51.242188 94.167969 52.425781 L 99.308594 52.425781 C 99.308594 51.242188 98.855469 50.285156 98.292969 50.285156 Z M 98.292969 50.285156 "/>
<path style=" stroke:none;fill-rule:nonzero;fill:rgb(24.705882%,23.921569%,33.72549%);fill-opacity:1;" d="M 87.230469 10.96875 L 62.410156 10.96875 L 62.410156 10.453125 L 51.15625 10.453125 L 51.15625 10.96875 L 26.230469 10.96875 C 25.304688 10.96875 24.550781 11.726562 24.550781 12.664062 L 24.550781 46.921875 C 24.550781 47.859375 25.304688 48.617188 26.230469 48.617188 L 87.230469 48.617188 C 88.15625 48.617188 88.910156 47.859375 88.910156 46.921875 L 88.910156 12.664062 C 88.910156 11.726562 88.15625 10.96875 87.230469 10.96875 Z M 87.230469 10.96875 "/>
<use xlink:href="#surface5" mask="url(#mask0)"/>
<path style=" stroke:none;fill-rule:nonzero;fill:rgb(42.352941%,38.823529%,100%);fill-opacity:1;" d="M 57.292969 12.414062 C 57.292969 12.757812 57.019531 13.03125 56.679688 13.03125 C 56.339844 13.03125 56.066406 12.757812 56.066406 12.414062 C 56.066406 12.074219 56.339844 11.796875 56.679688 11.796875 C 57.019531 11.796875 57.292969 12.074219 57.292969 12.414062 Z M 57.292969 12.414062 "/>
<path style=" stroke:none;fill-rule:nonzero;fill:rgb(24.705882%,23.921569%,33.72549%);fill-opacity:1;" d="M 13.210938 52.1875 L 100.058594 52.1875 L 100.058594 52.425781 L 13.210938 52.425781 Z M 13.210938 52.1875 "/>
<path style=" stroke:none;fill-rule:nonzero;fill:rgb(42.352941%,38.823529%,100%);fill-opacity:1;" d="M 64.910156 26.675781 L 64.910156 24.160156 C 64.910156 22.453125 63.535156 21.070312 61.84375 21.070312 L 59.347656 21.070312 C 59.347656 20.730469 58.261719 20.449219 56.886719 20.425781 L 56.886719 17.386719 C 57.78125 17.273438 58.4375 16.476562 58.378906 15.566406 C 58.324219 14.660156 57.574219 13.949219 56.671875 13.949219 C 55.769531 13.949219 55.019531 14.660156 54.964844 15.566406 C 54.90625 16.476562 55.5625 17.273438 56.457031 17.386719 L 56.457031 20.425781 C 55.082031 20.449219 53.996094 20.730469 53.996094 21.070312 L 51.070312 21.070312 C 49.378906 21.070312 48.003906 22.453125 48.003906 24.160156 L 48.003906 26.675781 C 47.652344 26.675781 47.363281 27.882812 47.363281 29.375 C 47.363281 30.863281 47.652344 32.070312 48.003906 32.070312 L 48.003906 35.019531 C 48.003906 36.726562 49.378906 38.109375 51.070312 38.109375 L 61.84375 38.109375 C 63.535156 38.109375 64.910156 36.726562 64.910156 35.019531 L 64.910156 32.070312 C 65.261719 32.070312 65.550781 30.863281 65.550781 29.375 C 65.550781 27.882812 65.261719 26.675781 64.910156 26.675781 Z M 64.910156 26.675781 "/>
<path style=" stroke:none;fill-rule:nonzero;fill:rgb(24.705882%,23.921569%,33.72549%);fill-opacity:1;" d="M 51.683594 22.039062 L 61.230469 22.039062 C 62.730469 22.039062 63.945312 23.265625 63.945312 24.777344 L 63.945312 34.398438 C 63.945312 35.914062 62.730469 37.136719 61.230469 37.136719 L 51.683594 37.136719 C 50.183594 37.136719 48.96875 35.914062 48.96875 34.398438 L 48.96875 24.777344 C 48.96875 23.265625 50.183594 22.039062 51.683594 22.039062 Z M 51.683594 22.039062 "/>
<path style=" stroke:none;fill-rule:nonzero;fill:rgb(42.352941%,38.823529%,100%);fill-opacity:1;" d="M 53.035156 29.210938 C 51.972656 29.210938 51.109375 28.34375 51.109375 27.269531 C 51.109375 27.210938 51.15625 27.164062 51.214844 27.164062 C 51.273438 27.164062 51.320312 27.210938 51.320312 27.269531 C 51.320312 28.222656 52.089844 28.996094 53.035156 28.996094 C 53.980469 28.996094 54.746094 28.222656 54.746094 27.269531 C 54.746094 27.210938 54.792969 27.164062 54.851562 27.164062 C 54.910156 27.164062 54.960938 27.210938 54.960938 27.269531 C 54.957031 28.34375 54.097656 29.210938 53.035156 29.210938 Z M 53.035156 29.210938 "/>
<path style=" stroke:none;fill-rule:nonzero;fill:rgb(42.352941%,38.823529%,100%);fill-opacity:1;" d="M 56.457031 32.878906 C 55.628906 32.878906 54.960938 32.203125 54.960938 31.367188 C 54.960938 31.308594 55.007812 31.261719 55.066406 31.261719 C 55.125 31.261719 55.171875 31.308594 55.171875 31.367188 C 55.171875 32.082031 55.75 32.664062 56.457031 32.664062 C 57.167969 32.664062 57.742188 32.082031 57.742188 31.367188 C 57.742188 31.308594 57.789062 31.261719 57.847656 31.261719 C 57.90625 31.261719 57.957031 31.308594 57.957031 31.367188 C 57.953125 32.203125 57.285156 32.878906 56.457031 32.878906 Z M 56.457031 32.878906 "/>
<path style=" stroke:none;fill-rule:nonzero;fill:rgb(42.352941%,38.823529%,100%);fill-opacity:1;" d="M 59.878906 29.210938 C 58.816406 29.210938 57.957031 28.34375 57.957031 27.269531 C 57.957031 27.210938 58.003906 27.164062 58.0625 27.164062 C 58.121094 27.164062 58.167969 27.210938 58.167969 27.269531 C 58.167969 28.222656 58.933594 28.996094 59.878906 28.996094 C 60.828125 28.996094 61.59375 28.222656 61.59375 27.269531 C 61.59375 27.210938 61.640625 27.164062 61.699219 27.164062 C 61.757812 27.164062 61.804688 27.210938 61.804688 27.269531 C 61.804688 28.34375 60.945312 29.210938 59.878906 29.210938 Z M 59.878906 29.210938 "/>
<path style=" stroke:none;fill-rule:nonzero;fill:rgb(42.352941%,38.823529%,100%);fill-opacity:1;" d="M 53.996094 27.378906 C 53.996094 27.914062 53.566406 28.347656 53.035156 28.347656 C 52.503906 28.347656 52.070312 27.914062 52.070312 27.378906 C 52.070312 26.84375 52.503906 26.40625 53.035156 26.40625 C 53.566406 26.40625 53.996094 26.84375 53.996094 27.378906 Z M 53.996094 27.378906 "/>
<path style=" stroke:none;fill-rule:nonzero;fill:rgb(42.352941%,38.823529%,100%);fill-opacity:1;" d="M 60.84375 27.378906 C 60.84375 27.914062 60.414062 28.347656 59.878906 28.347656 C 59.347656 28.347656 58.917969 27.914062 58.917969 27.378906 C 58.917969 26.84375 59.347656 26.40625 59.878906 26.40625 C 60.414062 26.40625 60.84375 26.84375 60.84375 27.378906 Z M 60.84375 27.378906 "/>
<path style=" stroke:none;fill-rule:nonzero;fill:rgb(42.352941%,38.823529%,100%);fill-opacity:1;" d="M 57.3125 31.90625 C 57.3125 31.667969 56.929688 31.476562 56.457031 31.476562 C 55.984375 31.476562 55.601562 31.667969 55.601562 31.90625 C 55.601562 32.144531 55.984375 32.339844 56.457031 32.339844 C 56.929688 32.339844 57.3125 32.144531 57.3125 31.90625 Z M 57.3125 31.90625 "/>
<path style=" stroke:none;fill-rule:nonzero;fill:rgb(24.705882%,23.921569%,33.72549%);fill-opacity:1;" d="M 90.589844 47.378906 L 84.75 47.378906 L 84.75 46.953125 C 84.75 46.90625 84.710938 46.871094 84.664062 46.871094 L 82.664062 46.871094 C 82.617188 46.871094 82.578125 46.90625 82.578125 46.953125 L 82.578125 47.378906 L 81.328125 47.378906 L 81.328125 46.953125 C 81.328125 46.90625 81.289062 46.871094 81.242188 46.871094 L 79.242188 46.871094 C 79.195312 46.871094 79.15625 46.90625 79.15625 46.953125 L 79.15625 47.378906 L 77.90625 47.378906 L 77.90625 46.953125 C 77.90625 46.90625 77.867188 46.871094 77.824219 46.871094 L 75.820312 46.871094 C 75.773438 46.871094 75.738281 46.90625 75.738281 46.953125 L 75.738281 47.378906 L 74.484375 47.378906 L 74.484375 46.953125 C 74.484375 46.90625 74.449219 46.871094 74.402344 46.871094 L 72.398438 46.871094 C 72.351562 46.871094 72.316406 46.90625 72.316406 46.953125 L 72.316406 47.378906 L 71.0625 47.378906 L 71.0625 46.953125 C 71.0625 46.90625 71.027344 46.871094 70.980469 46.871094 L 68.976562 46.871094 C 68.929688 46.871094 68.894531 46.90625 68.894531 46.953125 L 68.894531 47.378906 L 67.640625 47.378906 L 67.640625 46.953125 C 67.640625 46.90625 67.605469 46.871094 67.558594 46.871094 L 65.554688 46.871094 C 65.507812 46.871094 65.472656 46.90625 65.472656 46.953125 L 65.472656 47.378906 L 64.21875 47.378906 L 64.21875 46.953125 C 64.21875 46.90625 64.183594 46.871094 64.136719 46.871094 L 48.449219 46.871094 C 48.402344 46.871094 48.363281 46.90625 48.363281 46.953125 L 48.363281 47.378906 L 47.113281 47.378906 L 47.113281 46.953125 C 47.113281 46.90625 47.074219 46.871094 47.03125 46.871094 L 45.027344 46.871094 C 44.980469 46.871094 44.945312 46.90625 44.945312 46.953125 L 44.945312 47.378906 L 43.691406 47.378906 L 43.691406 46.953125 C 43.691406 46.90625 43.65625 46.871094 43.609375 46.871094 L 41.605469 46.871094 C 41.558594 46.871094 41.523438 46.90625 41.523438 46.953125 L 41.523438 47.378906 L 40.269531 47.378906 L 40.269531 46.953125 C 40.269531 46.90625 40.234375 46.871094 40.1875 46.871094 L 38.183594 46.871094 C 38.136719 46.871094 38.101562 46.90625 38.101562 46.953125 L 38.101562 47.378906 L 36.847656 47.378906 L 36.847656 46.953125 C 36.847656 46.90625 36.8125 46.871094 36.765625 46.871094 L 34.761719 46.871094 C 34.714844 46.871094 34.679688 46.90625 34.679688 46.953125 L 34.679688 47.378906 L 33.425781 47.378906 L 33.425781 46.953125 C 33.425781 46.90625 33.390625 46.871094 33.34375 46.871094 L 31.339844 46.871094 C 31.296875 46.871094 31.257812 46.90625 31.257812 46.953125 L 31.257812 47.378906 L 30.007812 47.378906 L 30.007812 46.953125 C 30.007812 46.90625 29.96875 46.871094 29.921875 46.871094 L 27.917969 46.871094 C 27.875 46.871094 27.835938 46.90625 27.835938 46.953125 L 27.835938 47.378906 L 23.996094 47.378906 C 22.890625 47.378906 21.996094 48.28125 21.996094 49.398438 L 21.996094 50.308594 C 21.996094 51.425781 22.890625 52.328125 23.996094 52.328125 L 90.589844 52.328125 C 91.695312 52.328125 92.59375 51.425781 92.59375 50.308594 L 92.59375 49.398438 C 92.59375 48.28125 91.695312 47.378906 90.589844 47.378906 Z M 90.589844 47.378906 "/>
<path style=" stroke:none;fill-rule:nonzero;fill:rgb(42.352941%,38.823529%,100%);fill-opacity:1;" d="M 35.960938 37.972656 L 75.886719 37.972656 L 75.886719 38.210938 L 35.960938 38.210938 Z M 35.960938 37.972656 "/>
<path style=" stroke:none;fill-rule:nonzero;fill:rgb(81.568627%,80.392157%,88.235294%);fill-opacity:1;" d="M 38.804688 37.855469 L 28.96875 37.855469 C 29.285156 34.117188 29.285156 30.363281 28.96875 26.628906 L 38.804688 26.628906 C 38.261719 30.472656 38.230469 34.222656 38.804688 37.855469 Z M 38.804688 37.855469 "/>
<path style=" stroke:none;fill-rule:nonzero;fill:rgb(24.705882%,23.921569%,33.72549%);fill-opacity:1;" d="M 30.390625 28.898438 L 37.5 28.898438 L 37.5 29.375 L 30.390625 29.375 Z M 30.390625 28.898438 "/>
<path style=" stroke:none;fill-rule:nonzero;fill:rgb(24.705882%,23.921569%,33.72549%);fill-opacity:1;" d="M 30.390625 30.449219 L 37.5 30.449219 L 37.5 30.925781 L 30.390625 30.925781 Z M 30.390625 30.449219 "/>
<path style=" stroke:none;fill-rule:nonzero;fill:rgb(24.705882%,23.921569%,33.72549%);fill-opacity:1;" d="M 30.390625 32 L 37.5 32 L 37.5 32.480469 L 30.390625 32.480469 Z M 30.390625 32 "/>
<path style=" stroke:none;fill-rule:nonzero;fill:rgb(24.705882%,23.921569%,33.72549%);fill-opacity:1;" d="M 30.390625 33.554688 L 37.5 33.554688 L 37.5 34.03125 L 30.390625 34.03125 Z M 30.390625 33.554688 "/>
<path style=" stroke:none;fill-rule:nonzero;fill:rgb(24.705882%,23.921569%,33.72549%);fill-opacity:1;" d="M 30.390625 35.105469 L 37.5 35.105469 L 37.5 35.585938 L 30.390625 35.585938 Z M 30.390625 35.105469 "/>
<path style=" stroke:none;fill-rule:nonzero;fill:rgb(18.431373%,18.039216%,25.490196%);fill-opacity:1;" d="M 12.671875 0.382812 C 12.671875 0.382812 11.125 -0.171875 10.132812 2.050781 C 9.140625 4.277344 7.59375 6.722656 7.59375 6.722656 L 8.476562 6.945312 C 8.476562 6.945312 8.699219 5.390625 9.25 5.167969 L 9.027344 7.167969 C 9.027344 7.167969 15.652344 9.503906 18.632812 6.945312 L 18.519531 6.167969 C 18.519531 6.167969 18.960938 6.28125 18.960938 6.945312 L 19.292969 6.613281 C 19.292969 6.613281 18.960938 5.945312 17.96875 5.054688 C 17.316406 4.472656 17.09375 3.359375 17.015625 2.664062 C 16.957031 2.085938 16.726562 1.535156 16.355469 1.089844 C 15.695312 0.320312 14.492188 -0.5 12.671875 0.382812 Z M 12.671875 0.382812 "/>
<path style=" stroke:none;fill-rule:nonzero;fill:rgb(100%,72.54902%,72.54902%);fill-opacity:1;" d="M 8.214844 49.460938 L 8.6875 52.207031 L 10.585938 51.851562 L 10.941406 49.460938 Z M 8.214844 49.460938 "/>
<path style=" stroke:none;fill-rule:nonzero;fill:rgb(18.431373%,18.039216%,25.490196%);fill-opacity:1;" d="M 10.941406 51.015625 L 8.332031 51.253906 L 8.453125 53.402344 L 8.332031 56.148438 C 8.332031 56.148438 6.792969 59.253906 9.042969 59.015625 C 11.296875 58.777344 11.058594 57.582031 11.058594 57.582031 L 11.652344 56.867188 L 11.296875 55.074219 Z M 10.941406 51.015625 "/>
<path style=" stroke:none;fill-rule:nonzero;fill:rgb(100%,72.54902%,72.54902%);fill-opacity:1;" d="M 18.878906 49.460938 L 18.40625 52.207031 L 16.507812 51.851562 L 16.152344 49.460938 Z M 18.878906 49.460938 "/>
<path style=" stroke:none;fill-rule:nonzero;fill:rgb(18.431373%,18.039216%,25.490196%);fill-opacity:1;" d="M 16.152344 51.015625 L 18.761719 51.253906 L 18.640625 53.402344 L 18.761719 56.148438 C 18.761719 56.148438 20.300781 59.253906 18.050781 59.015625 C 15.796875 58.777344 16.035156 57.582031 16.035156 57.582031 L 15.441406 56.867188 L 15.796875 55.074219 Z M 16.152344 51.015625 "/>
<path style=" stroke:none;fill-rule:nonzero;fill:rgb(100%,72.54902%,72.54902%);fill-opacity:1;" d="M 16.152344 5.03125 C 16.152344 6.550781 14.933594 7.78125 13.429688 7.78125 C 11.921875 7.78125 10.703125 6.550781 10.703125 5.03125 C 10.703125 3.515625 11.921875 2.285156 13.429688 2.285156 C 14.933594 2.285156 16.152344 3.515625 16.152344 5.03125 Z M 16.152344 5.03125 "/>
<path style=" stroke:none;fill-rule:nonzero;fill:rgb(100%,72.54902%,72.54902%);fill-opacity:1;" d="M 11.652344 6.464844 L 12.007812 10.765625 L 15.324219 10.644531 C 15.324219 10.644531 14.375 7.898438 14.96875 6.824219 Z M 11.652344 6.464844 "/>
<path style=" stroke:none;fill-rule:nonzero;fill:rgb(18.431373%,18.039216%,25.490196%);fill-opacity:1;" d="M 13.546875 9.929688 L 14.910156 9.070312 L 16.390625 9.808594 L 18.761719 10.882812 L 17.929688 21.035156 C 17.929688 21.035156 19.828125 27.367188 19.472656 30.472656 C 19.117188 33.578125 23.382812 49.101562 19.945312 49.820312 C 16.507812 50.535156 14.019531 51.253906 13.902344 50.058594 C 13.785156 48.863281 13.546875 30.589844 13.546875 30.589844 C 13.546875 30.589844 13.191406 49.9375 11.769531 50.179688 C 10.347656 50.417969 4.1875 51.371094 4.660156 49.9375 C 5.132812 48.507812 8.332031 23.425781 9.875 21.992188 L 10.109375 20.796875 L 8.097656 11.125 L 11.878906 9.222656 Z M 13.546875 9.929688 "/>
<path style=" stroke:none;fill-rule:nonzero;fill:rgb(100%,72.54902%,72.54902%);fill-opacity:1;" d="M 6.4375 24.738281 L 6.320312 29.636719 C 6.320312 29.636719 5.179688 34.46875 7.113281 34.441406 C 9.042969 34.414062 7.621094 29.636719 7.621094 29.636719 L 8.453125 24.859375 Z M 6.4375 24.738281 "/>
<path style=" stroke:none;fill-rule:nonzero;fill:rgb(100%,72.54902%,72.54902%);fill-opacity:1;" d="M 24.355469 19.597656 L 27.683594 23.167969 C 27.683594 23.167969 31.734375 26 30.273438 27.28125 C 28.816406 28.558594 26.714844 24.042969 26.714844 24.042969 L 22.933594 21.042969 Z M 24.355469 19.597656 "/>
<path style=" stroke:none;fill-rule:nonzero;fill:rgb(81.568627%,80.392157%,88.235294%);fill-opacity:1;" d="M 9.933594 21.695312 L 18.046875 21.441406 L 17.941406 20.886719 L 10.097656 20.742188 Z M 9.933594 21.695312 "/>
<path style=" stroke:none;fill-rule:nonzero;fill:rgb(18.431373%,18.039216%,25.490196%);fill-opacity:1;" d="M 12.300781 21.214844 C 12.300781 21.613281 11.984375 21.933594 11.59375 21.933594 C 11.199219 21.933594 10.882812 21.613281 10.882812 21.214844 C 10.882812 20.820312 11.199219 20.5 11.59375 20.5 C 11.984375 20.5 12.300781 20.820312 12.300781 21.214844 Z M 12.300781 21.214844 "/>
<path style=" stroke:none;fill-rule:nonzero;fill:rgb(18.431373%,18.039216%,25.490196%);fill-opacity:1;" d="M 9.042969 11.242188 L 8.273438 11.0625 C 8.273438 11.0625 7.265625 11.480469 7.03125 12.796875 C 6.792969 14.109375 3.710938 24.378906 5.253906 24.976562 C 6.792969 25.574219 9.042969 25.8125 9.042969 25.574219 C 9.042969 25.335938 9.992188 16.378906 9.992188 16.378906 Z M 9.042969 11.242188 "/>
<path style=" stroke:none;fill-rule:nonzero;fill:rgb(18.431373%,18.039216%,25.490196%);fill-opacity:1;" d="M 16.292969 11.699219 L 18.761719 10.882812 C 18.761719 10.882812 19.945312 10.882812 19.945312 12.199219 C 19.945312 12.742188 22.214844 17.191406 22.214844 17.191406 C 22.214844 17.191406 27.671875 21.113281 26.835938 21.253906 C 25.414062 21.492188 24.585938 24 24.585938 24 L 19.253906 19.222656 Z M 16.292969 11.699219 "/>
<path style=" stroke:none;fill-rule:nonzero;fill:rgb(18.431373%,18.039216%,25.490196%);fill-opacity:1;" d="M 10.105469 5.238281 C 10.105469 5.238281 10.988281 4.011719 11.761719 3.789062 C 12.53125 3.566406 12.644531 2.457031 12.644531 2.457031 C 12.644531 2.457031 14.628906 4.679688 15.84375 4.792969 C 17.058594 4.902344 15.953125 2.121094 15.953125 2.121094 L 13.746094 1.566406 L 11.648438 1.789062 L 9.996094 2.902344 Z M 10.105469 5.238281 "/>
<path style=" stroke:none;fill-rule:nonzero;fill:rgb(100%,72.54902%,72.54902%);fill-opacity:1;" d="M 11.117188 4.613281 C 11.117188 4.316406 10.957031 4.078125 10.761719 4.078125 C 10.566406 4.078125 10.40625 4.316406 10.40625 4.613281 C 10.40625 4.910156 10.566406 5.152344 10.761719 5.152344 C 10.957031 5.152344 11.117188 4.910156 11.117188 4.613281 Z M 11.117188 4.613281 "/>
</g>
</svg>
