<?xml version="1.0" encoding="UTF-8"?>
<svg xmlns="http://www.w3.org/2000/svg" xmlns:xlink="http://www.w3.org/1999/xlink" width="99pt" height="68pt" viewBox="0 0 99 68" version="1.1">
<defs>
<filter id="alpha" filterUnits="objectBoundingBox" x="0%" y="0%" width="100%" height="100%">
  <feColorMatrix type="matrix" in="SourceGraphic" values="0 0 0 0 1 0 0 0 0 1 0 0 0 0 1 0 0 0 1 0"/>
</filter>
<mask id="mask0">
  <g filter="url(#alpha)">
<rect x="0" y="0" width="99" height="68" style="fill:rgb(0%,0%,0%);fill-opacity:0.101961;stroke:none;"/>
  </g>
</mask>
<clipPath id="clip1">
  <rect x="0" y="0" width="99" height="68"/>
</clipPath>
<g id="surface5" clip-path="url(#clip1)">
<path style=" stroke:none;fill-rule:nonzero;fill:rgb(0%,0%,0%);fill-opacity:1;" d="M 15.386719 43.71875 C 15.386719 43.066406 11.941406 42.535156 7.691406 42.535156 C 3.445312 42.535156 0 43.066406 0 43.71875 C 0 44.371094 3.445312 44.902344 7.691406 44.902344 C 11.941406 44.902344 15.386719 44.371094 15.386719 43.71875 Z M 15.386719 43.71875 "/>
</g>
<mask id="mask1">
  <g filter="url(#alpha)">
<rect x="0" y="0" width="99" height="68" style="fill:rgb(0%,0%,0%);fill-opacity:0.101961;stroke:none;"/>
  </g>
</mask>
<clipPath id="clip2">
  <rect x="0" y="0" width="99" height="68"/>
</clipPath>
<g id="surface8" clip-path="url(#clip2)">
<path style=" stroke:none;fill-rule:nonzero;fill:rgb(0%,0%,0%);fill-opacity:1;" d="M 17.203125 41.339844 C 16.292969 40.691406 13.753906 40.53125 11.5 40.378906 C 10.511719 40.316406 9.574219 40.253906 8.855469 40.152344 C 8.164062 40.054688 7.542969 39.417969 6.992188 38.464844 C 6.152344 37.023438 5.476562 34.863281 4.953125 32.777344 C 5.152344 30.15625 5.449219 28.09375 5.449219 28.09375 C 5.449219 28.09375 4.863281 26.324219 4.675781 25.113281 C 4.808594 24.925781 4.976562 24.769531 5.175781 24.65625 C 7.566406 23.621094 9.851562 33.824219 10.140625 35.425781 C 10.144531 35.453125 10.148438 35.476562 10.152344 35.496094 C 10.292969 36.324219 11.8125 37.027344 13.175781 37.304688 C 14.011719 37.480469 14.792969 37.488281 15.152344 37.265625 C 16.097656 36.679688 19.003906 39.023438 19.222656 39.089844 C 19.441406 39.160156 18.511719 42.273438 17.203125 41.339844 Z M 17.203125 41.339844 "/>
</g>
</defs>
<g id="surface1">
<path style=" stroke:none;fill-rule:nonzero;fill:rgb(90.196078%,90.196078%,90.196078%);fill-opacity:1;" d="M 1.226562 43.664062 L 0 43.664062 L 0 54.132812 C 0 54.132812 7.914062 56.722656 15.609375 54.132812 L 15.609375 43.664062 Z M 1.226562 43.664062 "/>
<path style=" stroke:none;fill-rule:nonzero;fill:rgb(90.196078%,90.196078%,90.196078%);fill-opacity:1;" d="M 15.386719 43.71875 C 15.386719 43.066406 11.941406 42.535156 7.691406 42.535156 C 3.445312 42.535156 0 43.066406 0 43.71875 C 0 44.371094 3.445312 44.902344 7.691406 44.902344 C 11.941406 44.902344 15.386719 44.371094 15.386719 43.71875 Z M 15.386719 43.71875 "/>
<use xlink:href="#surface5" mask="url(#mask0)"/>
<path style=" stroke:none;fill-rule:nonzero;fill:rgb(18.431373%,18.039216%,25.490196%);fill-opacity:1;" d="M 10.398438 18.21875 C 10.398438 18.21875 15.121094 18.347656 15.898438 18.636719 C 16.679688 18.921875 17.027344 20.96875 17.027344 20.96875 L 13.363281 22.132812 L 10.621094 21.976562 L 8.558594 22.125 L 9.710938 19.078125 Z M 10.398438 18.21875 "/>
<path style=" stroke:none;fill-rule:nonzero;fill:rgb(62.352941%,38.039216%,41.568627%);fill-opacity:1;" d="M 10.601562 16.65625 C 10.601562 16.65625 10.914062 17.867188 10.222656 18.722656 C 9.535156 19.582031 13.1875 22.636719 13.1875 22.636719 L 15.113281 22.304688 C 15.113281 22.304688 14.691406 18.582031 15.261719 17.640625 C 15.832031 16.695312 10.601562 16.65625 10.601562 16.65625 Z M 10.601562 16.65625 "/>
<path style=" stroke:none;fill-rule:nonzero;fill:rgb(62.352941%,38.039216%,41.568627%);fill-opacity:1;" d="M 23.417969 52.074219 L 19.167969 57.769531 L 22.070312 59.480469 L 26.0625 52.882812 Z M 23.417969 52.074219 "/>
<path style=" stroke:none;fill-rule:nonzero;fill:rgb(18.431373%,18.039216%,25.490196%);fill-opacity:1;" d="M 20.4375 57.867188 C 20.4375 57.867188 18.871094 56.027344 18.941406 56.4375 C 19.011719 56.847656 17.828125 60.320312 18.929688 60.65625 C 20.03125 60.996094 29.472656 61.886719 29.605469 60.808594 C 29.734375 59.730469 26.785156 58.976562 26.785156 58.976562 C 26.785156 58.976562 25.035156 57.277344 24.648438 57.449219 C 24.257812 57.625 20.4375 57.867188 20.4375 57.867188 Z M 20.4375 57.867188 "/>
<path style=" stroke:none;fill-rule:nonzero;fill:rgb(62.352941%,38.039216%,41.568627%);fill-opacity:1;" d="M 22.464844 57.511719 L 25.859375 63.355469 L 28.425781 61.855469 L 25 57.074219 Z M 22.464844 57.511719 "/>
<path style=" stroke:none;fill-rule:nonzero;fill:rgb(81.568627%,80.392157%,88.235294%);fill-opacity:1;" d="M 27.828125 43.613281 L 26.820312 45.054688 C 26.820312 45.054688 22.011719 51.792969 22.523438 52.335938 C 23.035156 52.878906 25.160156 54.9375 26.238281 54.539062 C 27.320312 54.140625 31.160156 47.25 31.160156 47.25 L 30.160156 43.207031 Z M 27.828125 43.613281 "/>
<path style=" stroke:none;fill-rule:nonzero;fill:rgb(81.568627%,80.392157%,88.235294%);fill-opacity:1;" d="M 7.128906 42.25 C 7.128906 42.25 8.203125 44.277344 10.929688 44.964844 C 13.660156 45.648438 16.507812 47.054688 16.609375 47.035156 C 16.710938 47.019531 16.996094 46.863281 17.066406 47.273438 C 17.136719 47.683594 17.886719 48.394531 17.886719 48.394531 C 17.886719 48.394531 20.898438 58.734375 22.046875 58.746094 C 23.199219 58.757812 25.5625 57.925781 25.613281 57.601562 C 25.660156 57.273438 22.089844 46.71875 22.054688 46.511719 L 21.636719 44.054688 C 21.636719 44.054688 26.359375 44.816406 26.800781 44.949219 C 27.242188 45.085938 31.160156 47.25 31.160156 47.25 C 31.160156 47.25 35.15625 44.34375 31.417969 41.40625 C 27.683594 38.472656 21.257812 36.316406 21.257812 36.316406 L 18.953125 35.664062 L 16.945312 35.542969 L 16.652344 34.394531 L 11.894531 34.671875 L 6.929688 36.800781 Z M 7.128906 42.25 "/>
<path style=" stroke:none;fill-rule:nonzero;fill:rgb(62.352941%,38.039216%,41.568627%);fill-opacity:1;" d="M 17.109375 15.324219 C 17.109375 17.390625 15.449219 19.066406 13.40625 19.066406 C 11.359375 19.066406 9.699219 17.390625 9.699219 15.324219 C 9.699219 13.257812 11.359375 11.582031 13.40625 11.582031 C 15.449219 11.582031 17.109375 13.257812 17.109375 15.324219 Z M 17.109375 15.324219 "/>
<path style=" stroke:none;fill-rule:nonzero;fill:rgb(42.352941%,38.823529%,100%);fill-opacity:1;" d="M 10.054688 18.332031 L 10.5 18.253906 C 10.5 18.253906 11.304688 21.382812 13.792969 21.902344 C 13.792969 21.902344 15.023438 20.414062 14.96875 20.164062 C 14.917969 19.914062 15.941406 18.574219 16.488281 19.324219 C 17.03125 20.074219 16.355469 33.265625 16.8125 33.503906 C 17.269531 33.738281 18.253906 33.992188 17.460938 34.867188 C 16.671875 35.742188 13.53125 36.921875 12.835938 36.511719 C 12.136719 36.105469 10.71875 32.664062 10.101562 31.503906 C 9.488281 30.347656 8.503906 26.402344 8.503906 26.402344 C 8.503906 26.402344 7.246094 22.089844 8.019531 21.109375 C 8.792969 20.132812 10.054688 18.332031 10.054688 18.332031 Z M 10.054688 18.332031 "/>
<path style=" stroke:none;fill-rule:nonzero;fill:rgb(18.431373%,18.039216%,25.490196%);fill-opacity:1;" d="M 13.597656 34.574219 C 13.515625 35.492188 13.375 36.40625 13.175781 37.304688 C 12.992188 38.039062 12.78125 38.480469 12.539062 38.460938 C 11.921875 38.417969 11.644531 39.328125 11.5 40.378906 C 11.34375 41.496094 11.34375 42.769531 11.261719 43.21875 C 11.148438 43.8125 10.429688 44.265625 9 44.132812 C 8.144531 44.035156 7.308594 43.828125 6.507812 43.515625 C 4.574219 42.808594 4.628906 37.046875 4.953125 32.777344 C 5.152344 30.15625 5.449219 28.09375 5.449219 28.09375 C 5.449219 28.09375 4.863281 26.324219 4.675781 25.113281 C 4.636719 24.890625 4.617188 24.667969 4.617188 24.441406 C 4.648438 23.382812 6.535156 22.027344 7.691406 20.246094 C 8.851562 18.460938 10.457031 18.261719 10.457031 18.261719 L 9.910156 19.9375 C 9.910156 19.9375 10.761719 21.265625 10.765625 22.53125 C 10.773438 23.796875 12.808594 24.707031 13.539062 25.320312 C 14 25.703125 13.988281 30.839844 13.597656 34.574219 Z M 13.597656 34.574219 "/>
<path style=" stroke:none;fill-rule:nonzero;fill:rgb(18.431373%,18.039216%,25.490196%);fill-opacity:1;" d="M 15.207031 18.859375 C 15.207031 18.859375 15.339844 19.019531 15.953125 18.941406 C 16.683594 18.847656 17.695312 19.105469 17.929688 19.8125 C 18.355469 21.109375 19.566406 26.382812 19.566406 26.382812 C 19.566406 26.382812 20.070312 32.410156 20.296875 33.742188 C 20.523438 35.074219 20.414062 36.253906 20.636719 36.953125 C 20.859375 37.652344 18.429688 35.648438 17.535156 35.910156 C 16.640625 36.167969 16.0625 32.789062 16.175781 31.609375 C 16.289062 30.429688 16.382812 29.148438 16.074219 27.9375 C 15.761719 26.726562 16.3125 23.519531 16.292969 22.785156 C 16.273438 22.050781 14.320312 20.199219 15.207031 18.859375 Z M 15.207031 18.859375 "/>
<path style=" stroke:none;fill-rule:nonzero;fill:rgb(62.352941%,38.039216%,41.568627%);fill-opacity:1;" d="M 17.828125 37.597656 C 17.828125 37.597656 21.75 39.757812 22.128906 42.835938 C 22.503906 45.910156 16.878906 39.855469 16.878906 39.855469 Z M 17.828125 37.597656 "/>
<path style=" stroke:none;fill-rule:nonzero;fill:rgb(62.352941%,38.039216%,41.568627%);fill-opacity:1;" d="M 20.066406 35.417969 C 20.066406 35.417969 21.269531 41.535156 23.144531 41.210938 C 25.015625 40.882812 22.097656 35.0625 22.097656 35.0625 Z M 20.066406 35.417969 "/>
<path style=" stroke:none;fill-rule:nonzero;fill:rgb(18.431373%,18.039216%,25.490196%);fill-opacity:1;" d="M 26.480469 62.089844 C 26.480469 62.089844 25.523438 63.203125 25.285156 63.035156 C 25.046875 62.863281 24.5 65.175781 24.992188 65.617188 C 25.484375 66.058594 27.382812 66.78125 27.40625 67.515625 C 27.425781 68.25 32.515625 68.105469 32.699219 67.335938 C 32.882812 66.566406 32.0625 64.8125 31.484375 64.488281 C 30.90625 64.167969 28.773438 61.207031 28.773438 61.207031 C 28.773438 61.207031 27.105469 61.453125 26.480469 62.089844 Z M 26.480469 62.089844 "/>
<use xlink:href="#surface8" mask="url(#mask1)"/>
<path style=" stroke:none;fill-rule:nonzero;fill:rgb(18.431373%,18.039216%,25.490196%);fill-opacity:1;" d="M 5.175781 24.027344 C 5.175781 24.027344 3.4375 24.859375 4.199219 28.734375 C 4.964844 32.605469 6.503906 39.195312 8.855469 39.523438 C 11.210938 39.855469 15.894531 39.777344 17.203125 40.710938 C 18.511719 41.644531 19.441406 38.53125 19.222656 38.460938 C 19.003906 38.394531 16.097656 36.050781 15.152344 36.636719 C 14.207031 37.222656 10.378906 36.203125 10.152344 34.871094 C 9.925781 33.539062 7.605469 22.972656 5.175781 24.027344 Z M 5.175781 24.027344 "/>
<path style=" stroke:none;fill-rule:nonzero;fill:rgb(18.431373%,18.039216%,25.490196%);fill-opacity:1;" d="M 17.703125 22.171875 L 19.613281 26.648438 C 19.613281 26.648438 19.804688 26.550781 20.027344 27.25 C 20.253906 27.949219 20.355469 28.566406 20.75 29.023438 C 21.140625 29.484375 22.882812 36.035156 22.933594 36.34375 C 22.988281 36.648438 20.527344 37.707031 19.980469 36.855469 C 19.429688 36 17.703125 22.171875 17.703125 22.171875 Z M 17.703125 22.171875 "/>
<path style=" stroke:none;fill-rule:nonzero;fill:rgb(18.431373%,18.039216%,25.490196%);fill-opacity:1;" d="M 11.296875 15.273438 C 11.4375 15.234375 11.460938 15.042969 11.464844 14.894531 C 11.488281 14.101562 11.964844 13.285156 12.714844 13.054688 C 13.003906 12.976562 13.308594 12.957031 13.605469 13.003906 C 14.027344 13.0625 14.433594 13.199219 14.804688 13.410156 C 15 13.523438 15.195312 13.65625 15.417969 13.691406 C 15.5625 13.710938 16.199219 13.898438 16.347656 13.925781 C 16.667969 13.984375 16.964844 14.273438 17.273438 14.164062 C 17.570312 14.0625 17.636719 13.675781 17.644531 13.359375 C 17.660156 12.640625 16.785156 11.984375 16.308594 11.449219 C 15.945312 11.042969 15.402344 10.855469 14.871094 10.757812 C 14.25 10.660156 13.621094 10.621094 12.992188 10.644531 C 12.140625 10.660156 12.046875 10.386719 11.28125 10.761719 C 10.511719 11.132812 9.871094 11.871094 9.832031 12.730469 C 9.824219 12.910156 9.84375 13.089844 9.828125 13.265625 C 9.792969 13.703125 9.453125 13.980469 9.34375 14.40625 C 9.1875 15.03125 9.304688 15.699219 9.660156 16.234375 C 9.945312 16.65625 10.027344 16.972656 10.367188 17.429688 C 10.574219 17.214844 10.453125 17.234375 10.660156 17.019531 C 10.847656 16.871094 10.914062 16.613281 10.808594 16.394531 L 10.589844 15.53125 C 10.535156 15.378906 10.527344 15.210938 10.574219 15.054688 C 10.808594 14.46875 11.058594 15.335938 11.296875 15.273438 Z M 11.296875 15.273438 "/>
<path style=" stroke:none;fill-rule:nonzero;fill:rgb(24.705882%,23.921569%,33.72549%);fill-opacity:1;" d="M 98.984375 26.195312 C 98.214844 20.195312 97.347656 14.148438 96.394531 8.136719 C 95.96875 5.441406 95.523438 2.757812 95.0625 0.0820312 L 95.046875 0 L 94.96875 0.00390625 C 94.023438 0.0390625 93.082031 0.0625 92.132812 0.0703125 C 91.617188 0.078125 91.101562 0.0820312 90.589844 0.0820312 C 88.894531 0.0859375 87.203125 0.0664062 85.546875 0.046875 C 83.847656 0.0273438 82.125 0.0078125 80.398438 0.0117188 C 79.273438 0.015625 78.144531 0.03125 77.015625 0.0625 C 75.265625 0.113281 73.515625 0.207031 71.78125 0.371094 C 69.988281 0.539062 68.171875 0.78125 66.417969 1.019531 C 64.421875 1.292969 62.355469 1.570312 60.3125 1.738281 C 56.558594 2.042969 52.734375 1.976562 49.03125 1.910156 C 47.035156 1.875 44.972656 1.839844 42.941406 1.863281 C 42.851562 1.863281 42.730469 1.855469 42.589844 1.847656 C 42.074219 1.808594 41.363281 1.757812 41.152344 2.105469 C 41.011719 2.335938 41.179688 3.050781 41.394531 3.886719 C 41.453125 4.105469 41.5 4.292969 41.515625 4.382812 C 41.738281 5.773438 41.914062 7.1875 42.042969 8.585938 C 42.304688 11.464844 42.367188 14.359375 42.234375 17.246094 C 42.082031 20.457031 41.6875 23.648438 41.046875 26.796875 L 41.027344 26.898438 L 41.128906 26.910156 C 48.320312 27.773438 55.839844 28.285156 63.476562 28.429688 C 64.617188 28.453125 65.691406 28.464844 66.710938 28.464844 C 66.8125 28.464844 66.910156 28.464844 67.003906 28.464844 C 67.808594 28.464844 68.582031 28.460938 69.328125 28.449219 C 69.804688 28.4375 70.269531 28.429688 70.726562 28.414062 C 71.558594 28.390625 72.359375 28.355469 73.136719 28.3125 C 73.199219 28.308594 73.261719 28.304688 73.324219 28.300781 C 73.542969 28.289062 73.761719 28.273438 73.980469 28.261719 C 74.332031 28.238281 74.683594 28.210938 75.027344 28.183594 C 77.429688 27.996094 79.859375 27.695312 82.226562 27.390625 C 82.492188 27.355469 82.757812 27.320312 83.023438 27.285156 C 83.199219 27.261719 83.378906 27.238281 83.558594 27.214844 C 87.128906 26.753906 90.78125 26.300781 94.425781 26.210938 C 94.566406 26.207031 94.710938 26.203125 94.851562 26.199219 C 95.582031 26.1875 96.3125 26.191406 97.046875 26.210938 C 97.660156 26.226562 98.273438 26.257812 98.886719 26.304688 L 99 26.3125 Z M 96.949219 26.019531 C 96.242188 26 95.539062 25.996094 94.832031 26.011719 C 94.671875 26.011719 94.507812 26.015625 94.34375 26.019531 C 90.53125 26.121094 86.71875 26.613281 83 27.097656 L 82.601562 27.148438 C 82.5 27.164062 82.398438 27.175781 82.296875 27.1875 C 79.902344 27.5 77.441406 27.808594 75.011719 27.996094 C 74.738281 28.019531 74.460938 28.039062 74.179688 28.058594 C 73.894531 28.078125 73.601562 28.09375 73.308594 28.113281 C 73.246094 28.117188 73.183594 28.121094 73.121094 28.125 C 72.339844 28.167969 71.535156 28.199219 70.699219 28.226562 C 70.152344 28.242188 69.59375 28.253906 69.019531 28.261719 C 68.277344 28.273438 67.503906 28.277344 66.699219 28.277344 C 65.683594 28.273438 64.613281 28.261719 63.480469 28.242188 C 55.886719 28.097656 48.40625 27.585938 41.253906 26.734375 C 41.878906 23.609375 42.269531 20.441406 42.421875 17.257812 C 42.554688 14.359375 42.492188 11.457031 42.230469 8.570312 C 42.101562 7.164062 41.921875 5.746094 41.699219 4.351562 C 41.683594 4.25 41.636719 4.070312 41.578125 3.839844 C 41.457031 3.367188 41.199219 2.386719 41.3125 2.203125 C 41.464844 1.957031 42.132812 2.003906 42.578125 2.035156 C 42.722656 2.042969 42.847656 2.054688 42.941406 2.050781 C 44.972656 2.03125 47.035156 2.066406 49.03125 2.101562 C 52.734375 2.164062 56.566406 2.234375 60.328125 1.925781 C 62.375 1.761719 64.445312 1.480469 66.445312 1.207031 C 68.195312 0.972656 70.007812 0.726562 71.796875 0.558594 C 71.933594 0.546875 72.070312 0.53125 72.207031 0.519531 C 72.269531 0.515625 72.332031 0.511719 72.394531 0.503906 C 73.898438 0.378906 75.410156 0.300781 76.925781 0.257812 C 78.089844 0.222656 79.253906 0.207031 80.414062 0.203125 C 82.136719 0.195312 83.851562 0.21875 85.542969 0.238281 C 87.199219 0.257812 88.882812 0.277344 90.570312 0.273438 C 91.089844 0.269531 91.613281 0.269531 92.132812 0.261719 C 93.054688 0.25 93.976562 0.230469 94.890625 0.195312 C 95.335938 2.773438 95.765625 5.367188 96.179688 7.96875 C 97.136719 14.003906 98.011719 20.078125 98.785156 26.105469 C 98.171875 26.0625 97.5625 26.03125 96.949219 26.019531 Z M 96.949219 26.019531 "/>
<path style=" stroke:none;fill-rule:nonzero;fill:rgb(24.705882%,23.921569%,33.72549%);fill-opacity:1;" d="M 56.046875 27.890625 C 55.722656 25.558594 56.015625 23.175781 56.292969 20.875 C 56.445312 19.644531 56.597656 18.371094 56.660156 17.121094 C 56.785156 14.484375 56.492188 11.808594 56.210938 9.222656 C 55.953125 6.886719 55.691406 4.472656 55.734375 2.085938 L 55.921875 2.089844 C 55.878906 4.464844 56.140625 6.871094 56.398438 9.203125 C 56.679688 11.796875 56.972656 14.480469 56.847656 17.132812 C 56.785156 18.386719 56.632812 19.664062 56.480469 20.898438 C 56.203125 23.1875 55.914062 25.554688 56.234375 27.863281 Z M 56.046875 27.890625 "/>
<path style=" stroke:none;fill-rule:nonzero;fill:rgb(24.705882%,23.921569%,33.72549%);fill-opacity:1;" d="M 73.152344 28.546875 C 72.425781 19.21875 72.109375 9.75 72.207031 0.394531 L 72.394531 0.394531 C 72.296875 9.746094 72.613281 19.210938 73.339844 28.53125 Z M 73.152344 28.546875 "/>
<path style=" stroke:none;fill-rule:nonzero;fill:rgb(24.705882%,23.921569%,33.72549%);fill-opacity:1;" d="M 44.921875 4.789062 L 44.898438 4.597656 C 47.183594 4.355469 49.480469 4.265625 51.777344 4.335938 L 51.769531 4.523438 C 49.484375 4.457031 47.195312 4.542969 44.921875 4.789062 Z M 44.921875 4.789062 "/>
<path style=" stroke:none;fill-rule:nonzero;fill:rgb(24.705882%,23.921569%,33.72549%);fill-opacity:1;" d="M 61.039062 3.96875 L 61.03125 3.777344 C 62.15625 3.746094 63.316406 3.710938 64.445312 3.550781 C 65.714844 3.371094 66.96875 3.023438 68.1875 2.691406 L 68.234375 2.875 C 67.015625 3.210938 65.75 3.558594 64.472656 3.738281 C 63.332031 3.902344 62.167969 3.933594 61.039062 3.96875 Z M 61.039062 3.96875 "/>
<path style=" stroke:none;fill-rule:nonzero;fill:rgb(24.705882%,23.921569%,33.72549%);fill-opacity:1;" d="M 88.28125 2.652344 C 88.140625 2.652344 88.003906 2.652344 87.867188 2.652344 L 77.160156 2.5625 L 77.164062 2.371094 L 87.867188 2.460938 C 88.605469 2.46875 89.367188 2.472656 90.089844 2.296875 L 90.132812 2.484375 C 89.523438 2.613281 88.902344 2.667969 88.28125 2.652344 Z M 88.28125 2.652344 "/>
<path style=" stroke:none;fill-rule:nonzero;fill:rgb(42.352941%,38.823529%,100%);fill-opacity:1;" d="M 48.121094 14.1875 L 43.898438 14.1875 C 44.371094 12.21875 44.828125 10.378906 43.898438 9.066406 L 48.121094 9.066406 C 48.917969 10.773438 48.917969 12.480469 48.121094 14.1875 Z M 48.121094 14.1875 "/>
<path style=" stroke:none;fill-rule:nonzero;fill:rgb(42.352941%,38.823529%,100%);fill-opacity:1;" d="M 67.800781 23.695312 L 63.574219 23.695312 C 63.3125 21.320312 63.894531 19.550781 63.574219 18.574219 L 67.800781 18.574219 C 67.636719 20.277344 67.636719 21.992188 67.800781 23.695312 Z M 67.800781 23.695312 "/>
<path style=" stroke:none;fill-rule:nonzero;fill:rgb(42.352941%,38.823529%,100%);fill-opacity:1;" d="M 62.859375 16.460938 L 58.636719 16.460938 C 58.792969 14.492188 59.304688 12.65625 58.636719 11.34375 L 62.859375 11.34375 C 63.65625 13.046875 63.65625 14.753906 62.859375 16.460938 Z M 62.859375 16.460938 "/>
<path style=" stroke:none;fill-rule:nonzero;fill:rgb(100%,39.607843%,51.764706%);fill-opacity:1;" d="M 67.179688 12.101562 L 71.402344 12.101562 C 71.667969 10.132812 71.085938 8.292969 71.402344 6.980469 L 67.179688 6.980469 C 66.382812 8.6875 66.382812 10.394531 67.179688 12.101562 Z M 67.179688 12.101562 "/>
<path style=" stroke:none;fill-rule:nonzero;fill:rgb(24.705882%,23.921569%,33.72549%);fill-opacity:1;" d="M 48.027344 22.910156 L 52.253906 22.910156 C 52.515625 20.941406 51.933594 19.101562 52.253906 17.789062 L 48.027344 17.789062 C 47.230469 19.496094 47.230469 21.203125 48.027344 22.910156 Z M 48.027344 22.910156 "/>
</g>
</svg>
