<?xml version="1.0" encoding="UTF-8"?>
<svg xmlns="http://www.w3.org/2000/svg" xmlns:xlink="http://www.w3.org/1999/xlink" width="99pt" height="75pt" viewBox="0 0 99 75" version="1.1">
<g id="surface1">
<path style=" stroke:none;fill-rule:nonzero;fill:rgb(90.196078%,90.196078%,90.196078%);fill-opacity:1;" d="M 46.414062 72.769531 C 46.414062 73.917969 36.011719 74.039062 23.207031 74.847656 C 10.414062 75.652344 0 73.917969 0 72.769531 C 0 71.621094 10.464844 69.316406 23.207031 70.691406 C 36.011719 72.078125 46.414062 71.621094 46.414062 72.769531 Z M 46.414062 72.769531 "/>
<path style=" stroke:none;fill-rule:nonzero;fill:rgb(24.705882%,23.921569%,33.72549%);fill-opacity:1;" d="M 95.347656 0 L 67.839844 0 C 65.105469 0 62.738281 1.914062 62.136719 4.605469 L 48.238281 66.828125 C 47.929688 68.199219 48.242188 69.640625 49.085938 70.761719 C 49.929688 71.882812 51.222656 72.570312 52.613281 72.640625 L 80.890625 74.046875 C 84.023438 74.203125 86.785156 71.988281 87.34375 68.875 L 95.226562 24.882812 L 95.8125 25.050781 L 97.320312 16.710938 L 96.71875 16.558594 L 98.917969 4.28125 C 99.109375 3.214844 98.820312 2.121094 98.128906 1.292969 C 97.4375 0.464844 96.417969 -0.0078125 95.347656 0 Z M 95.347656 0 "/>
<path style=" stroke:none;fill-rule:nonzero;fill:rgb(100%,100%,100%);fill-opacity:1;" d="M 71.460938 1.339844 L 68.25 1.339844 C 66.351562 1.339844 64.707031 2.675781 64.300781 4.550781 L 50.960938 66.265625 C 50.804688 66.984375 50.96875 67.738281 51.40625 68.324219 C 51.847656 68.914062 52.515625 69.277344 53.242188 69.328125 L 81.429688 71.191406 C 83.074219 71.300781 84.539062 70.144531 84.832031 68.503906 L 96.21875 4.714844 C 96.367188 3.878906 96.140625 3.019531 95.601562 2.371094 C 95.0625 1.71875 94.261719 1.339844 93.421875 1.339844 L 90.375 1.339844 C 89.769531 1.339844 89.238281 1.753906 89.082031 2.34375 C 88.941406 2.863281 88.472656 3.226562 87.9375 3.226562 L 73.476562 3.226562 C 72.421875 3.226562 71.542969 2.40625 71.460938 1.339844 Z M 71.460938 1.339844 "/>
<path style=" stroke:none;fill-rule:nonzero;fill:rgb(62.745098%,38.039216%,41.568627%);fill-opacity:1;" d="M 41.289062 33.085938 L 43.777344 38.050781 L 51.207031 41.460938 C 52 42.816406 54.523438 42.917969 54.707031 42.042969 C 54.910156 41.0625 51.644531 39.480469 51.644531 39.480469 L 45.429688 35.238281 L 44.882812 31.585938 Z M 41.289062 33.085938 "/>
<path style=" stroke:none;fill-rule:nonzero;fill:rgb(62.745098%,38.039216%,41.568627%);fill-opacity:1;" d="M 41.582031 66.410156 L 41.125 70.113281 L 43.785156 70.296875 L 44.058594 66.410156 Z M 41.582031 66.410156 "/>
<path style=" stroke:none;fill-rule:nonzero;fill:rgb(18.431373%,18.039216%,25.490196%);fill-opacity:1;" d="M 41.949219 69.554688 C 41.710938 69.300781 41.492188 69.03125 41.292969 68.746094 C 40.914062 68.214844 40.574219 70.945312 40.574219 70.945312 C 40.574219 70.945312 40.207031 72.054688 40.300781 72.609375 C 40.390625 73.164062 42.5 73.164062 42.867188 73.070312 C 43.234375 72.980469 45.066406 73.070312 45.066406 73.070312 L 47.816406 73.070312 C 50.199219 71.960938 47.816406 71.222656 47.816406 71.222656 C 47.082031 71.128906 44.609375 68.816406 44.609375 68.816406 L 44.058594 67.796875 C 43.691406 67.707031 43.324219 69.09375 43.324219 69.09375 Z M 41.949219 69.554688 "/>
<path style=" stroke:none;fill-rule:nonzero;fill:rgb(62.745098%,38.039216%,41.568627%);fill-opacity:1;" d="M 34.710938 66.457031 L 34.25 70.15625 L 36.910156 70.34375 L 37.183594 66.457031 Z M 34.710938 66.457031 "/>
<path style=" stroke:none;fill-rule:nonzero;fill:rgb(18.431373%,18.039216%,25.490196%);fill-opacity:1;" d="M 35.074219 69.601562 C 34.839844 69.347656 34.617188 69.078125 34.417969 68.792969 C 34.039062 68.261719 33.699219 70.992188 33.699219 70.992188 C 33.699219 70.992188 33.335938 72.007812 33.425781 72.5625 C 33.515625 73.117188 35.625 73.117188 35.992188 73.027344 C 36.359375 72.933594 38.191406 73.117188 38.191406 73.117188 L 40.941406 73.117188 C 43.324219 72.007812 40.941406 71.269531 40.941406 71.269531 C 40.207031 71.175781 37.734375 68.863281 37.734375 68.863281 L 37.183594 67.84375 C 36.816406 67.753906 36.449219 69.140625 36.449219 69.140625 Z M 35.074219 69.601562 "/>
<path style=" stroke:none;fill-rule:nonzero;fill:rgb(18.431373%,18.039216%,25.490196%);fill-opacity:1;" d="M 37.734375 42.585938 C 37.367188 43.050781 37.550781 44.621094 37.550781 44.621094 C 37.550781 44.621094 36.910156 49.710938 37.183594 50.171875 C 37.457031 50.636719 37 51.007812 36.726562 51.652344 C 36.449219 52.300781 36.175781 53.875 36.175781 53.875 C 34.617188 55.167969 34.710938 61.089844 34.710938 61.089844 L 34.160156 66.363281 C 34.34375 66.917969 36.910156 67.011719 37.277344 66.917969 C 37.640625 66.828125 38.742188 58.5 38.742188 58.5 L 41.21875 53.78125 C 41.21875 53.78125 41.035156 66.363281 41.035156 66.917969 C 41.035156 67.476562 43.507812 67.195312 44.058594 67.195312 C 44.609375 67.195312 44.609375 57.945312 44.609375 57.945312 L 45.160156 55.539062 L 48.09375 44.53125 L 48.09375 43.234375 L 47.632812 42.585938 C 47.632812 42.585938 38.101562 42.125 37.734375 42.585938 Z M 37.734375 42.585938 "/>
<path style=" stroke:none;fill-rule:nonzero;fill:rgb(62.745098%,38.039216%,41.568627%);fill-opacity:1;" d="M 44.609375 18.71875 C 44.609375 20.300781 43.335938 21.585938 41.765625 21.585938 C 40.199219 21.585938 38.925781 20.300781 38.925781 18.71875 C 38.925781 17.132812 40.199219 15.851562 41.765625 15.851562 C 43.335938 15.851562 44.609375 17.132812 44.609375 18.71875 Z M 44.609375 18.71875 "/>
<path style=" stroke:none;fill-rule:nonzero;fill:rgb(62.745098%,38.039216%,41.568627%);fill-opacity:1;" d="M 43.1875 20.058594 C 42.613281 21.355469 42.953125 23.160156 44.105469 25.148438 L 39.429688 22.925781 L 40.164062 22.28125 L 39.980469 20.429688 Z M 43.1875 20.058594 "/>
<path style=" stroke:none;fill-rule:nonzero;fill:rgb(42.352941%,38.823529%,100%);fill-opacity:1;" d="M 43.1875 23.019531 C 43.800781 23.386719 44.167969 24.0625 44.375 24.75 C 44.765625 26.019531 45 27.335938 45.074219 28.664062 L 45.296875 32.640625 L 48.046875 43.1875 C 45.664062 45.222656 44.289062 44.761719 41.078125 43.097656 C 37.871094 41.429688 37.503906 43.652344 37.503906 43.652344 C 37.503906 43.652344 37.230469 43.558594 37.503906 43.28125 C 37.78125 43.003906 37.503906 43.28125 37.230469 43.003906 C 36.953125 42.726562 37.230469 43.003906 37.320312 42.726562 C 37.414062 42.449219 37.320312 42.632812 37.230469 42.542969 C 37.136719 42.449219 37.597656 41.617188 37.597656 41.617188 L 36.863281 34.675781 L 35.945312 24.871094 C 37.046875 23.480469 40.164062 22.28125 40.164062 22.28125 L 43.003906 24.316406 C 43.921875 24.683594 43.1875 23.203125 43.1875 23.203125 Z M 43.1875 23.019531 "/>
<path style=" stroke:none;fill-rule:nonzero;fill:rgb(62.745098%,38.039216%,41.568627%);fill-opacity:1;" d="M 34.433594 30.746094 L 34.066406 36.296875 L 38.742188 43.050781 C 38.742188 44.621094 39.566406 44.992188 39.566406 44.992188 C 39.878906 44.488281 40.15625 43.964844 40.390625 43.421875 C 40.851562 42.402344 40.117188 41.570312 40.117188 41.570312 L 36.910156 34.722656 L 38.285156 31.300781 Z M 34.433594 30.746094 "/>
<path style=" stroke:none;fill-rule:nonzero;fill:rgb(42.352941%,38.823529%,100%);fill-opacity:1;" d="M 35.992188 24.917969 C 34.433594 25.472656 34.160156 31.484375 34.160156 31.484375 C 35.992188 30.46875 38.191406 32.132812 38.191406 32.132812 C 38.191406 32.132812 38.652344 30.558594 39.199219 28.523438 C 39.539062 27.359375 39.261719 26.105469 38.46875 25.195312 C 38.46875 25.195312 37.550781 24.359375 35.992188 24.917969 Z M 35.992188 24.917969 "/>
<path style=" stroke:none;fill-rule:nonzero;fill:rgb(18.431373%,18.039216%,25.490196%);fill-opacity:1;" d="M 39.15625 19.597656 C 39.515625 19.304688 40.011719 19.835938 40.011719 19.835938 L 40.300781 17.207031 C 40.300781 17.207031 42.109375 17.425781 43.265625 17.132812 C 44.421875 16.839844 44.605469 18.191406 44.605469 18.191406 C 44.664062 17.648438 44.675781 17.097656 44.640625 16.550781 C 44.566406 15.890625 43.628906 15.234375 41.964844 14.796875 C 40.300781 14.359375 39.429688 16.257812 39.429688 16.257812 C 38.273438 16.839844 38.792969 19.890625 39.15625 19.597656 Z M 39.15625 19.597656 "/>
<path style=" stroke:none;fill-rule:nonzero;fill:rgb(90.196078%,90.196078%,90.196078%);fill-opacity:1;" d="M 87.457031 44.484375 C 87.570312 44.492188 87.671875 44.410156 87.691406 44.296875 L 94.011719 9.574219 C 94.023438 9.507812 94.007812 9.441406 93.964844 9.386719 C 93.921875 9.335938 93.859375 9.304688 93.789062 9.304688 L 65.035156 8.964844 C 64.925781 8.964844 64.835938 9.039062 64.8125 9.144531 L 57.359375 42.738281 C 57.34375 42.804688 57.359375 42.875 57.402344 42.929688 C 57.441406 42.984375 57.503906 43.015625 57.570312 43.019531 Z M 87.457031 44.484375 "/>
<path style=" stroke:none;fill-rule:nonzero;fill:rgb(90.196078%,90.196078%,90.196078%);fill-opacity:1;" d="M 62.433594 46.703125 C 62.378906 46.703125 62.332031 46.742188 62.320312 46.792969 L 62.054688 47.941406 C 62.046875 47.976562 62.054688 48.007812 62.074219 48.035156 C 62.09375 48.0625 62.125 48.082031 62.160156 48.082031 L 77.160156 49.160156 C 77.21875 49.164062 77.269531 49.125 77.28125 49.066406 L 77.539062 47.738281 C 77.542969 47.703125 77.535156 47.671875 77.515625 47.644531 C 77.496094 47.617188 77.464844 47.601562 77.433594 47.601562 L 62.441406 46.703125 C 62.4375 46.703125 62.433594 46.703125 62.433594 46.703125 Z M 62.433594 46.703125 "/>
<path style=" stroke:none;fill-rule:nonzero;fill:rgb(90.196078%,90.196078%,90.196078%);fill-opacity:1;" d="M 80.660156 53.425781 C 80.714844 53.433594 80.765625 53.394531 80.78125 53.339844 L 81.105469 52.007812 C 81.113281 51.976562 81.105469 51.941406 81.085938 51.914062 C 81.066406 51.886719 81.035156 51.867188 81 51.867188 L 61.84375 50.511719 C 61.789062 50.507812 61.742188 50.542969 61.726562 50.59375 L 61.386719 51.746094 C 61.378906 51.78125 61.382812 51.816406 61.402344 51.84375 C 61.421875 51.875 61.453125 51.890625 61.488281 51.894531 Z M 80.660156 53.425781 "/>
<path style=" stroke:none;fill-rule:nonzero;fill:rgb(90.196078%,90.196078%,90.196078%);fill-opacity:1;" d="M 79.628906 57.695312 C 79.6875 57.703125 79.738281 57.664062 79.75 57.609375 L 80.074219 56.277344 C 80.082031 56.246094 80.078125 56.210938 80.058594 56.183594 C 80.039062 56.15625 80.007812 56.136719 79.972656 56.136719 L 60.8125 54.78125 C 60.761719 54.777344 60.710938 54.8125 60.695312 54.863281 L 60.359375 56.015625 C 60.347656 56.050781 60.355469 56.085938 60.375 56.113281 C 60.394531 56.140625 60.425781 56.160156 60.460938 56.164062 Z M 79.628906 57.695312 "/>
<path style=" stroke:none;fill-rule:nonzero;fill:rgb(42.352941%,38.823529%,100%);fill-opacity:1;" d="M 70.808594 65.019531 C 70.863281 65.027344 70.914062 64.988281 70.929688 64.933594 L 71.617188 62.160156 C 71.625 62.125 71.617188 62.089844 71.597656 62.0625 C 71.578125 62.035156 71.546875 62.019531 71.515625 62.015625 L 59.75 61.015625 C 59.691406 61.011719 59.640625 61.050781 59.628906 61.105469 L 59.042969 63.769531 C 59.035156 63.800781 59.042969 63.835938 59.0625 63.863281 C 59.082031 63.890625 59.109375 63.90625 59.144531 63.910156 Z M 70.808594 65.019531 "/>
</g>
</svg>
