<?xml version="1.0" encoding="UTF-8"?>
<svg xmlns="http://www.w3.org/2000/svg" xmlns:xlink="http://www.w3.org/1999/xlink" width="100pt" height="66pt" viewBox="0 0 100 66" version="1.1">
<defs>
<filter id="alpha" filterUnits="objectBoundingBox" x="0%" y="0%" width="100%" height="100%">
  <feColorMatrix type="matrix" in="SourceGraphic" values="0 0 0 0 1 0 0 0 0 1 0 0 0 0 1 0 0 0 1 0"/>
</filter>
<mask id="mask0">
  <g filter="url(#alpha)">
<rect x="0" y="0" width="100" height="66" style="fill:rgb(0%,0%,0%);fill-opacity:0.101961;stroke:none;"/>
  </g>
</mask>
<clipPath id="clip1">
  <rect x="0" y="0" width="100" height="66"/>
</clipPath>
<g id="surface5" clip-path="url(#clip1)">
<path style=" stroke:none;fill-rule:nonzero;fill:rgb(0%,0%,0%);fill-opacity:1;" d="M 100 63.894531 C 100 62.722656 77.613281 61.773438 50 61.773438 C 22.386719 61.773438 0 62.722656 0 63.894531 C 0 65.066406 22.386719 66.015625 50 66.015625 C 77.613281 66.015625 100 65.066406 100 63.894531 Z M 100 63.894531 "/>
</g>
<mask id="mask1">
  <g filter="url(#alpha)">
<rect x="0" y="0" width="100" height="66" style="fill:rgb(0%,0%,0%);fill-opacity:0.101961;stroke:none;"/>
  </g>
</mask>
<clipPath id="clip2">
  <rect x="0" y="0" width="100" height="66"/>
</clipPath>
<g id="surface8" clip-path="url(#clip2)">
<path style=" stroke:none;fill-rule:nonzero;fill:rgb(0%,0%,0%);fill-opacity:1;" d="M 4.332031 51.285156 C 4.625 51.320312 4.910156 51.410156 5.203125 51.425781 C 5.496094 51.445312 5.816406 51.375 6.003906 51.148438 C 6.105469 51.023438 6.152344 50.867188 6.238281 50.734375 C 6.316406 50.609375 6.425781 50.507812 6.558594 50.433594 C 6.765625 50.871094 6.707031 51.386719 6.40625 51.765625 C 6.105469 52.144531 5.617188 52.320312 5.144531 52.214844 C 4.671875 52.109375 4.300781 51.746094 4.1875 51.277344 C 4.238281 51.277344 4.285156 51.28125 4.332031 51.285156 Z M 4.332031 51.285156 "/>
</g>
<mask id="mask2">
  <g filter="url(#alpha)">
<rect x="0" y="0" width="100" height="66" style="fill:rgb(0%,0%,0%);fill-opacity:0.101961;stroke:none;"/>
  </g>
</mask>
<clipPath id="clip3">
  <rect x="0" y="0" width="100" height="66"/>
</clipPath>
<g id="surface11" clip-path="url(#clip3)">
<path style=" stroke:none;fill-rule:nonzero;fill:rgb(0%,0%,0%);fill-opacity:1;" d="M 3.972656 55.019531 C 4.414062 55.039062 4.839844 54.828125 5.085938 54.457031 C 5.332031 54.085938 5.367188 53.613281 5.175781 53.210938 C 5.074219 53.28125 4.988281 53.367188 4.921875 53.46875 C 4.832031 53.605469 4.777344 53.761719 4.671875 53.886719 C 4.472656 54.117188 4.136719 54.195312 3.832031 54.179688 C 3.523438 54.167969 3.230469 54.082031 2.929688 54.050781 C 2.886719 54.050781 2.84375 54.046875 2.800781 54.042969 C 2.929688 54.59375 3.40625 54.992188 3.972656 55.019531 Z M 3.972656 55.019531 "/>
</g>
<mask id="mask3">
  <g filter="url(#alpha)">
<rect x="0" y="0" width="100" height="66" style="fill:rgb(0%,0%,0%);fill-opacity:0.101961;stroke:none;"/>
  </g>
</mask>
<clipPath id="clip4">
  <rect x="0" y="0" width="100" height="66"/>
</clipPath>
<g id="surface14" clip-path="url(#clip4)">
<path style=" stroke:none;fill-rule:nonzero;fill:rgb(0%,0%,0%);fill-opacity:1;" d="M 7.046875 57.066406 C 7.484375 57.085938 7.90625 56.878906 8.15625 56.515625 C 8.402344 56.148438 8.445312 55.683594 8.261719 55.28125 C 8.15625 55.347656 8.066406 55.4375 7.992188 55.539062 C 7.894531 55.675781 7.832031 55.835938 7.71875 55.964844 C 7.507812 56.203125 7.148438 56.289062 6.824219 56.28125 C 6.5 56.273438 6.207031 56.195312 5.894531 56.171875 C 6.050781 56.683594 6.511719 57.039062 7.046875 57.066406 Z M 7.046875 57.066406 "/>
</g>
<mask id="mask4">
  <g filter="url(#alpha)">
<rect x="0" y="0" width="100" height="66" style="fill:rgb(0%,0%,0%);fill-opacity:0.101961;stroke:none;"/>
  </g>
</mask>
<clipPath id="clip5">
  <rect x="0" y="0" width="100" height="66"/>
</clipPath>
<g id="surface17" clip-path="url(#clip5)">
<path style=" stroke:none;fill-rule:nonzero;fill:rgb(0%,0%,0%);fill-opacity:1;" d="M 6.421875 59.527344 C 6.679688 60.039062 7.253906 60.316406 7.816406 60.191406 C 8.382812 60.070312 8.789062 59.582031 8.8125 59.003906 C 8.820312 58.832031 8.792969 58.65625 8.730469 58.492188 C 8.625 58.558594 8.53125 58.644531 8.453125 58.738281 C 8.332031 58.886719 8.253906 59.050781 8.113281 59.191406 C 7.855469 59.445312 7.4375 59.550781 7.0625 59.558594 C 6.847656 59.5625 6.632812 59.550781 6.421875 59.527344 Z M 6.421875 59.527344 "/>
</g>
<mask id="mask5">
  <g filter="url(#alpha)">
<rect x="0" y="0" width="100" height="66" style="fill:rgb(0%,0%,0%);fill-opacity:0.2;stroke:none;"/>
  </g>
</mask>
<clipPath id="clip6">
  <rect x="0" y="0" width="100" height="66"/>
</clipPath>
<g id="surface20" clip-path="url(#clip6)">
<path style=" stroke:none;fill-rule:nonzero;fill:rgb(0%,0%,0%);fill-opacity:1;" d="M 6.277344 62.621094 C 7.40625 62.632812 8.898438 62.441406 9.199219 62.261719 C 9.429688 62.121094 9.519531 61.621094 9.550781 61.390625 L 9.582031 61.390625 C 9.582031 61.390625 9.519531 62.195312 9.222656 62.382812 C 8.925781 62.570312 7.429688 62.75 6.300781 62.746094 C 5.972656 62.746094 5.859375 62.625 5.867188 62.453125 C 5.910156 62.554688 6.035156 62.621094 6.277344 62.621094 Z M 6.277344 62.621094 "/>
</g>
<mask id="mask6">
  <g filter="url(#alpha)">
<rect x="0" y="0" width="100" height="66" style="fill:rgb(0%,0%,0%);fill-opacity:0.101961;stroke:none;"/>
  </g>
</mask>
<clipPath id="clip7">
  <rect x="0" y="0" width="100" height="66"/>
</clipPath>
<g id="surface23" clip-path="url(#clip7)">
<path style=" stroke:none;fill-rule:nonzero;fill:rgb(0%,0%,0%);fill-opacity:1;" d="M 91.878906 52.097656 C 92.167969 52.132812 92.453125 52.222656 92.746094 52.238281 C 93.039062 52.257812 93.363281 52.1875 93.546875 51.960938 C 93.648438 51.835938 93.699219 51.679688 93.78125 51.546875 C 93.863281 51.421875 93.972656 51.320312 94.101562 51.246094 C 94.308594 51.683594 94.253906 52.199219 93.953125 52.578125 C 93.652344 52.957031 93.160156 53.132812 92.691406 53.027344 C 92.21875 52.921875 91.847656 52.558594 91.734375 52.089844 C 91.78125 52.089844 91.828125 52.09375 91.878906 52.097656 Z M 91.878906 52.097656 "/>
</g>
<mask id="mask7">
  <g filter="url(#alpha)">
<rect x="0" y="0" width="100" height="66" style="fill:rgb(0%,0%,0%);fill-opacity:0.101961;stroke:none;"/>
  </g>
</mask>
<clipPath id="clip8">
  <rect x="0" y="0" width="100" height="66"/>
</clipPath>
<g id="surface26" clip-path="url(#clip8)">
<path style=" stroke:none;fill-rule:nonzero;fill:rgb(0%,0%,0%);fill-opacity:1;" d="M 91.515625 55.832031 C 91.960938 55.851562 92.382812 55.640625 92.632812 55.269531 C 92.878906 54.898438 92.914062 54.425781 92.722656 54.023438 C 92.621094 54.09375 92.535156 54.179688 92.464844 54.28125 C 92.375 54.417969 92.320312 54.574219 92.214844 54.699219 C 92.019531 54.933594 91.679688 55.007812 91.375 54.992188 C 91.070312 54.980469 90.773438 54.894531 90.472656 54.863281 C 90.429688 54.863281 90.386719 54.859375 90.34375 54.855469 C 90.472656 55.40625 90.953125 55.804688 91.515625 55.832031 Z M 91.515625 55.832031 "/>
</g>
<mask id="mask8">
  <g filter="url(#alpha)">
<rect x="0" y="0" width="100" height="66" style="fill:rgb(0%,0%,0%);fill-opacity:0.101961;stroke:none;"/>
  </g>
</mask>
<clipPath id="clip9">
  <rect x="0" y="0" width="100" height="66"/>
</clipPath>
<g id="surface29" clip-path="url(#clip9)">
<path style=" stroke:none;fill-rule:nonzero;fill:rgb(0%,0%,0%);fill-opacity:1;" d="M 94.589844 57.878906 C 95.03125 57.898438 95.453125 57.691406 95.699219 57.328125 C 95.949219 56.964844 95.988281 56.496094 95.808594 56.09375 C 95.703125 56.164062 95.609375 56.25 95.535156 56.351562 C 95.4375 56.488281 95.375 56.648438 95.265625 56.777344 C 95.050781 57.015625 94.691406 57.101562 94.367188 57.09375 C 94.046875 57.085938 93.753906 57.007812 93.441406 56.984375 C 93.597656 57.496094 94.058594 57.851562 94.589844 57.878906 Z M 94.589844 57.878906 "/>
</g>
<mask id="mask9">
  <g filter="url(#alpha)">
<rect x="0" y="0" width="100" height="66" style="fill:rgb(0%,0%,0%);fill-opacity:0.101961;stroke:none;"/>
  </g>
</mask>
<clipPath id="clip10">
  <rect x="0" y="0" width="100" height="66"/>
</clipPath>
<g id="surface32" clip-path="url(#clip10)">
<path style=" stroke:none;fill-rule:nonzero;fill:rgb(0%,0%,0%);fill-opacity:1;" d="M 93.964844 60.339844 C 94.226562 60.855469 94.800781 61.128906 95.363281 61.003906 C 95.925781 60.882812 96.335938 60.394531 96.355469 59.816406 C 96.367188 59.644531 96.339844 59.46875 96.273438 59.304688 C 96.171875 59.371094 96.078125 59.457031 95.996094 59.550781 C 95.875 59.699219 95.796875 59.863281 95.65625 60.003906 C 95.398438 60.257812 94.980469 60.363281 94.609375 60.371094 C 94.394531 60.375 94.179688 60.363281 93.964844 60.339844 Z M 93.964844 60.339844 "/>
</g>
<mask id="mask10">
  <g filter="url(#alpha)">
<rect x="0" y="0" width="100" height="66" style="fill:rgb(0%,0%,0%);fill-opacity:0.2;stroke:none;"/>
  </g>
</mask>
<clipPath id="clip11">
  <rect x="0" y="0" width="100" height="66"/>
</clipPath>
<g id="surface35" clip-path="url(#clip11)">
<path style=" stroke:none;fill-rule:nonzero;fill:rgb(0%,0%,0%);fill-opacity:1;" d="M 93.820312 63.433594 C 94.949219 63.445312 96.445312 63.253906 96.746094 63.074219 C 96.972656 62.933594 97.066406 62.433594 97.09375 62.203125 L 97.128906 62.203125 C 97.128906 62.203125 97.066406 63.007812 96.769531 63.195312 C 96.46875 63.382812 94.972656 63.5625 93.84375 63.558594 C 93.519531 63.558594 93.40625 63.4375 93.414062 63.265625 C 93.453125 63.367188 93.578125 63.433594 93.820312 63.433594 Z M 93.820312 63.433594 "/>
</g>
<mask id="mask11">
  <g filter="url(#alpha)">
<rect x="0" y="0" width="100" height="66" style="fill:rgb(0%,0%,0%);fill-opacity:0.101961;stroke:none;"/>
  </g>
</mask>
<clipPath id="clip12">
  <rect x="0" y="0" width="100" height="66"/>
</clipPath>
<g id="surface38" clip-path="url(#clip12)">
<path style=" stroke:none;fill-rule:nonzero;fill:rgb(0%,0%,0%);fill-opacity:1;" d="M 47.105469 3.929688 L 51.117188 3.929688 L 51.117188 10.191406 L 47.105469 10.191406 Z M 47.105469 3.929688 "/>
</g>
<mask id="mask12">
  <g filter="url(#alpha)">
<rect x="0" y="0" width="100" height="66" style="fill:rgb(0%,0%,0%);fill-opacity:0.101961;stroke:none;"/>
  </g>
</mask>
<clipPath id="clip13">
  <rect x="0" y="0" width="100" height="66"/>
</clipPath>
<g id="surface41" clip-path="url(#clip13)">
<path style=" stroke:none;fill-rule:nonzero;fill:rgb(0%,0%,0%);fill-opacity:1;" d="M 48.183594 7.464844 C 48.164062 7.648438 48.101562 7.851562 47.945312 7.949219 C 47.8125 8.03125 47.648438 8.023438 47.5 8.054688 C 47.179688 8.136719 46.917969 8.363281 46.792969 8.667969 C 46.675781 8.96875 46.652344 9.300781 46.726562 9.621094 C 46.761719 9.773438 46.808594 9.925781 46.863281 10.074219 C 47.019531 10.519531 47.210938 10.960938 47.503906 11.332031 C 47.753906 11.625 48.035156 11.890625 48.34375 12.121094 C 48.535156 12.277344 48.730469 12.433594 48.964844 12.507812 C 49.125 12.550781 49.289062 12.570312 49.453125 12.574219 C 49.65625 12.582031 49.871094 12.589844 50.046875 12.488281 C 50.320312 12.332031 50.398438 11.988281 50.546875 11.710938 C 50.671875 11.476562 50.855469 11.273438 50.972656 11.035156 C 51.054688 10.847656 51.117188 10.648438 51.152344 10.445312 L 51.402344 9.335938 C 51.492188 8.933594 51.578125 8.476562 51.351562 8.132812 C 51.332031 8.105469 51.3125 8.082031 51.285156 8.0625 C 51.238281 8.046875 51.191406 8.039062 51.144531 8.050781 C 50.859375 8.066406 50.570312 8.003906 50.320312 7.859375 C 50.28125 7.839844 50.246094 7.8125 50.214844 7.777344 C 50.179688 7.722656 50.160156 7.65625 50.152344 7.585938 C 50.128906 7.449219 50.089844 7.316406 50.039062 7.1875 C 50.023438 7.140625 49.996094 7.097656 49.960938 7.066406 C 49.921875 7.039062 49.878906 7.027344 49.832031 7.023438 C 49.445312 6.960938 49.054688 6.917969 48.664062 6.902344 C 48.535156 6.894531 48.34375 6.84375 48.253906 6.957031 C 48.167969 7.070312 48.195312 7.328125 48.183594 7.464844 Z M 48.183594 7.464844 "/>
</g>
<mask id="mask13">
  <g filter="url(#alpha)">
<rect x="0" y="0" width="100" height="66" style="fill:rgb(0%,0%,0%);fill-opacity:0.101961;stroke:none;"/>
  </g>
</mask>
<clipPath id="clip14">
  <rect x="0" y="0" width="100" height="66"/>
</clipPath>
<g id="surface44" clip-path="url(#clip14)">
<path style=" stroke:none;fill-rule:nonzero;fill:rgb(0%,0%,0%);fill-opacity:1;" d="M 45.738281 8.992188 L 45.3125 9.6875 C 45.3125 9.6875 45.6875 12.097656 45.738281 12.523438 C 45.785156 12.832031 45.855469 13.136719 45.953125 13.433594 C 45.953125 13.433594 46.007812 14.71875 46.007812 15.203125 C 46.007812 15.683594 46.277344 16.488281 46.277344 16.488281 C 46.316406 16.941406 46.40625 17.390625 46.546875 17.824219 C 46.761719 18.414062 46.976562 19.109375 46.976562 19.109375 C 46.976562 19.109375 47.246094 18.359375 48.3125 19.484375 C 48.5625 19.230469 48.5625 18.828125 48.3125 18.574219 C 48.3125 18.574219 47.992188 17.128906 47.992188 16.378906 C 47.992188 15.628906 47.40625 12.046875 47.40625 12.046875 C 47.40625 12.046875 47.023438 7.972656 45.738281 8.992188 Z M 45.738281 8.992188 "/>
</g>
<mask id="mask14">
  <g filter="url(#alpha)">
<rect x="0" y="0" width="100" height="66" style="fill:rgb(0%,0%,0%);fill-opacity:0.101961;stroke:none;"/>
  </g>
</mask>
<clipPath id="clip15">
  <rect x="0" y="0" width="100" height="66"/>
</clipPath>
<g id="surface47" clip-path="url(#clip15)">
<path style=" stroke:none;fill-rule:nonzero;fill:rgb(0%,0%,0%);fill-opacity:1;" d="M 52.695312 8.558594 L 52.964844 8.878906 C 52.964844 8.878906 53.28125 10.699219 52.585938 13.003906 L 52.371094 15.089844 C 52.371094 15.089844 51.996094 16.859375 51.945312 17.285156 C 51.890625 17.714844 51.890625 17.765625 51.785156 17.925781 C 51.714844 18.003906 51.714844 18.121094 51.785156 18.199219 L 51.460938 19.371094 C 51.460938 19.371094 50.980469 18.785156 50.019531 19.53125 C 50.019531 19.53125 49.746094 19.105469 49.964844 18.730469 C 50.179688 18.355469 50.179688 18.195312 50.125 18.085938 C 50.070312 17.980469 50.339844 17.445312 50.339844 17.335938 C 50.339844 17.230469 50.714844 14.769531 50.714844 14.769531 C 50.714844 14.769531 50.875 12.359375 51.035156 11.558594 C 51.136719 11.066406 51.132812 9.964844 51.117188 9.1875 C 51.097656 8.382812 52.074219 7.945312 52.652344 8.511719 C 52.664062 8.527344 52.679688 8.539062 52.695312 8.558594 Z M 52.695312 8.558594 "/>
</g>
<mask id="mask15">
  <g filter="url(#alpha)">
<rect x="0" y="0" width="100" height="66" style="fill:rgb(0%,0%,0%);fill-opacity:0.101961;stroke:none;"/>
  </g>
</mask>
<clipPath id="clip16">
  <rect x="0" y="0" width="100" height="66"/>
</clipPath>
<g id="surface50" clip-path="url(#clip16)">
<path style=" stroke:none;fill-rule:nonzero;fill:rgb(0%,0%,0%);fill-opacity:1;" d="M 50.386719 2.347656 C 50.175781 2.9375 49.621094 3.332031 48.996094 3.339844 C 48.375 3.347656 47.808594 2.96875 47.582031 2.386719 C 48.417969 2.050781 49.269531 2.351562 49.269531 2.351562 C 49.699219 2.199219 50.066406 2.214844 50.386719 2.347656 Z M 50.386719 2.347656 "/>
</g>
<mask id="mask16">
  <g filter="url(#alpha)">
<rect x="0" y="0" width="100" height="66" style="fill:rgb(0%,0%,0%);fill-opacity:0.101961;stroke:none;"/>
  </g>
</mask>
<clipPath id="clip17">
  <rect x="0" y="0" width="100" height="66"/>
</clipPath>
<g id="surface53" clip-path="url(#clip17)">
<path style=" stroke:none;fill-rule:nonzero;fill:rgb(0%,0%,0%);fill-opacity:1;" d="M 49.164062 3.261719 C 47.878906 3.113281 47.703125 5.359375 47.71875 6.785156 C 47.734375 5.371094 47.972656 3.445312 49.164062 3.582031 C 50.5 3.734375 50.71875 5.988281 50.734375 7.265625 C 50.75 6.09375 50.621094 3.425781 49.164062 3.261719 Z M 49.164062 3.261719 "/>
</g>
<mask id="mask17">
  <g filter="url(#alpha)">
<rect x="0" y="0" width="100" height="66" style="fill:rgb(0%,0%,0%);fill-opacity:0.101961;stroke:none;"/>
  </g>
</mask>
<clipPath id="clip18">
  <rect x="0" y="0" width="100" height="66"/>
</clipPath>
<g id="surface56" clip-path="url(#clip18)">
<path style=" stroke:none;fill-rule:nonzero;fill:rgb(0%,0%,0%);fill-opacity:1;" d="M 46.167969 7.703125 C 46.074219 7.089844 46.019531 6.46875 46.007812 5.851562 C 46.003906 6.578125 46.058594 7.304688 46.167969 8.023438 C 46.167969 8.023438 47.078125 8.613281 47.773438 8.238281 C 47.773438 8.238281 47.761719 8.125 47.75 7.929688 C 47.058594 8.277344 46.167969 7.703125 46.167969 7.703125 Z M 46.167969 7.703125 "/>
</g>
<mask id="mask18">
  <g filter="url(#alpha)">
<rect x="0" y="0" width="100" height="66" style="fill:rgb(0%,0%,0%);fill-opacity:0.101961;stroke:none;"/>
  </g>
</mask>
<clipPath id="clip19">
  <rect x="0" y="0" width="100" height="66"/>
</clipPath>
<g id="surface59" clip-path="url(#clip19)">
<path style=" stroke:none;fill-rule:nonzero;fill:rgb(0%,0%,0%);fill-opacity:1;" d="M 52.105469 7.546875 C 51.808594 8.097656 50.859375 7.855469 50.730469 7.816406 C 50.726562 8.015625 50.714844 8.136719 50.714844 8.136719 C 50.714844 8.136719 51.785156 8.457031 52.105469 7.863281 C 52.171875 7.742188 52.207031 7.402344 52.199219 6.945312 C 52.1875 7.238281 52.15625 7.457031 52.105469 7.546875 Z M 52.105469 7.546875 "/>
</g>
<mask id="mask19">
  <g filter="url(#alpha)">
<rect x="0" y="0" width="100" height="66" style="fill:rgb(0%,0%,0%);fill-opacity:0.101961;stroke:none;"/>
  </g>
</mask>
<clipPath id="clip20">
  <rect x="0" y="0" width="100" height="66"/>
</clipPath>
<g id="surface62" clip-path="url(#clip20)">
<path style=" stroke:none;fill-rule:nonzero;fill:rgb(0%,0%,0%);fill-opacity:1;" d="M 79.941406 43.738281 C 79.472656 43.792969 79.019531 43.9375 78.554688 43.964844 C 78.085938 43.996094 77.570312 43.882812 77.277344 43.515625 C 77.117188 43.316406 77.039062 43.070312 76.902344 42.855469 C 76.777344 42.65625 76.601562 42.492188 76.394531 42.378906 C 76.039062 43.078125 76.121094 43.917969 76.605469 44.535156 C 77.085938 45.15625 77.882812 45.4375 78.648438 45.261719 C 79.410156 45.085938 80.003906 44.484375 80.167969 43.71875 C 80.09375 43.726562 80.015625 43.730469 79.941406 43.738281 Z M 79.941406 43.738281 "/>
</g>
<mask id="mask20">
  <g filter="url(#alpha)">
<rect x="0" y="0" width="100" height="66" style="fill:rgb(0%,0%,0%);fill-opacity:0.101961;stroke:none;"/>
  </g>
</mask>
<clipPath id="clip21">
  <rect x="0" y="0" width="100" height="66"/>
</clipPath>
<g id="surface65" clip-path="url(#clip21)">
<path style=" stroke:none;fill-rule:nonzero;fill:rgb(0%,0%,0%);fill-opacity:1;" d="M 80.515625 49.6875 C 79.808594 49.71875 79.132812 49.378906 78.742188 48.789062 C 78.347656 48.199219 78.292969 47.445312 78.59375 46.804688 C 78.753906 46.914062 78.894531 47.050781 79 47.214844 C 79.144531 47.429688 79.230469 47.679688 79.402344 47.878906 C 79.714844 48.25 80.253906 48.371094 80.738281 48.347656 C 81.226562 48.328125 81.695312 48.1875 82.183594 48.144531 C 82.25 48.136719 82.320312 48.132812 82.386719 48.132812 C 82.179688 49.011719 81.417969 49.644531 80.515625 49.6875 Z M 80.515625 49.6875 "/>
</g>
<mask id="mask21">
  <g filter="url(#alpha)">
<rect x="0" y="0" width="100" height="66" style="fill:rgb(0%,0%,0%);fill-opacity:0.101961;stroke:none;"/>
  </g>
</mask>
<clipPath id="clip22">
  <rect x="0" y="0" width="100" height="66"/>
</clipPath>
<g id="surface68" clip-path="url(#clip22)">
<path style=" stroke:none;fill-rule:nonzero;fill:rgb(0%,0%,0%);fill-opacity:1;" d="M 75.613281 52.949219 C 74.914062 52.980469 74.246094 52.648438 73.851562 52.070312 C 73.457031 51.488281 73.390625 50.746094 73.679688 50.105469 C 73.84375 50.214844 73.988281 50.355469 74.105469 50.515625 C 74.261719 50.738281 74.359375 50.992188 74.542969 51.199219 C 74.882812 51.578125 75.457031 51.710938 75.972656 51.699219 C 76.472656 51.6875 76.953125 51.5625 77.449219 51.527344 C 77.199219 52.339844 76.464844 52.910156 75.613281 52.949219 Z M 75.613281 52.949219 "/>
</g>
<mask id="mask22">
  <g filter="url(#alpha)">
<rect x="0" y="0" width="100" height="66" style="fill:rgb(0%,0%,0%);fill-opacity:0.101961;stroke:none;"/>
  </g>
</mask>
<clipPath id="clip23">
  <rect x="0" y="0" width="100" height="66"/>
</clipPath>
<g id="surface71" clip-path="url(#clip23)">
<path style=" stroke:none;fill-rule:nonzero;fill:rgb(0%,0%,0%);fill-opacity:1;" d="M 76.613281 56.871094 C 76.125 57.835938 74.96875 58.246094 73.984375 57.804688 C 73 57.363281 72.535156 56.222656 72.929688 55.21875 C 73.097656 55.328125 73.246094 55.460938 73.375 55.613281 C 73.566406 55.847656 73.691406 56.113281 73.917969 56.332031 C 74.328125 56.738281 74.996094 56.902344 75.585938 56.917969 C 75.929688 56.921875 76.273438 56.90625 76.613281 56.871094 Z M 76.613281 56.871094 "/>
</g>
<mask id="mask23">
  <g filter="url(#alpha)">
<rect x="0" y="0" width="100" height="66" style="fill:rgb(0%,0%,0%);fill-opacity:0.2;stroke:none;"/>
  </g>
</mask>
<clipPath id="clip24">
  <rect x="0" y="0" width="100" height="66"/>
</clipPath>
<g id="surface74" clip-path="url(#clip24)">
<path style=" stroke:none;fill-rule:nonzero;fill:rgb(0%,0%,0%);fill-opacity:1;" d="M 76.839844 61.808594 C 75.042969 61.824219 72.660156 61.527344 72.183594 61.238281 C 71.820312 61.015625 71.671875 60.21875 71.625 59.847656 L 71.570312 59.847656 C 71.570312 59.847656 71.671875 61.132812 72.152344 61.425781 C 72.628906 61.71875 75.011719 62.011719 76.808594 62 C 77.328125 62 77.507812 61.808594 77.5 61.535156 C 77.425781 61.699219 77.226562 61.800781 76.839844 61.808594 Z M 76.839844 61.808594 "/>
</g>
<mask id="mask24">
  <g filter="url(#alpha)">
<rect x="0" y="0" width="100" height="66" style="fill:rgb(0%,0%,0%);fill-opacity:0.0313725;stroke:none;"/>
  </g>
</mask>
<clipPath id="clip25">
  <rect x="0" y="0" width="100" height="66"/>
</clipPath>
<g id="surface77" clip-path="url(#clip25)">
<path style=" stroke:none;fill-rule:nonzero;fill:rgb(0%,0%,0%);fill-opacity:1;" d="M 26.046875 8.121094 C 25.445312 8.007812 24.828125 8.074219 24.265625 8.316406 C 23.585938 8.617188 22.808594 8.617188 22.128906 8.308594 C 21.34375 7.960938 20.363281 7.96875 19.617188 8.359375 C 19.394531 8.476562 19.144531 8.539062 18.894531 8.539062 C 17.875 8.539062 17.027344 7.511719 16.851562 6.15625 C 17.054688 6.007812 17.226562 5.824219 17.359375 5.609375 C 17.960938 4.644531 18.882812 4.027344 19.921875 4.027344 C 20.960938 4.027344 21.875 4.636719 22.472656 5.589844 C 22.832031 6.175781 23.476562 6.527344 24.164062 6.519531 L 24.1875 6.519531 C 25 6.519531 25.703125 7.171875 26.046875 8.121094 Z M 26.046875 8.121094 "/>
</g>
<mask id="mask25">
  <g filter="url(#alpha)">
<rect x="0" y="0" width="100" height="66" style="fill:rgb(0%,0%,0%);fill-opacity:0.0313725;stroke:none;"/>
  </g>
</mask>
<clipPath id="clip26">
  <rect x="0" y="0" width="100" height="66"/>
</clipPath>
<g id="surface80" clip-path="url(#clip26)">
<path style=" stroke:none;fill-rule:nonzero;fill:rgb(0%,0%,0%);fill-opacity:1;" d="M 70.660156 8.117188 C 70.363281 8.0625 70.054688 8.09375 69.773438 8.214844 C 69.433594 8.367188 69.046875 8.367188 68.707031 8.214844 C 68.304688 8.039062 67.847656 8.046875 67.453125 8.238281 C 67.34375 8.296875 67.21875 8.328125 67.09375 8.328125 C 66.582031 8.328125 66.160156 7.816406 66.070312 7.140625 C 66.171875 7.070312 66.261719 6.976562 66.328125 6.871094 C 66.625 6.390625 67.085938 6.082031 67.605469 6.082031 C 68.121094 6.082031 68.578125 6.386719 68.875 6.863281 C 69.058594 7.152344 69.378906 7.332031 69.722656 7.324219 L 69.734375 7.324219 C 70.140625 7.320312 70.488281 7.644531 70.660156 8.117188 Z M 70.660156 8.117188 "/>
</g>
<mask id="mask26">
  <g filter="url(#alpha)">
<rect x="0" y="0" width="100" height="66" style="fill:rgb(0%,0%,0%);fill-opacity:0.0313725;stroke:none;"/>
  </g>
</mask>
<clipPath id="clip27">
  <rect x="0" y="0" width="100" height="66"/>
</clipPath>
<g id="surface83" clip-path="url(#clip27)">
<path style=" stroke:none;fill-rule:nonzero;fill:rgb(0%,0%,0%);fill-opacity:1;" d="M 20.929688 22.894531 C 21.410156 22.804688 21.90625 22.859375 22.355469 23.050781 C 22.898438 23.296875 23.523438 23.296875 24.070312 23.050781 C 24.714844 22.769531 25.449219 22.78125 26.082031 23.089844 C 26.261719 23.183594 26.460938 23.234375 26.664062 23.234375 C 27.480469 23.234375 28.160156 22.414062 28.300781 21.328125 C 28.136719 21.207031 28 21.058594 27.894531 20.886719 C 27.414062 20.117188 26.671875 19.621094 25.839844 19.621094 C 25.007812 19.621094 24.273438 20.113281 23.796875 20.875 C 23.507812 21.34375 22.992188 21.625 22.441406 21.621094 L 22.421875 21.621094 C 21.765625 21.613281 21.203125 22.136719 20.929688 22.894531 Z M 20.929688 22.894531 "/>
</g>
</defs>
<g id="surface1">
<path style=" stroke:none;fill-rule:nonzero;fill:rgb(94.901961%,94.901961%,94.901961%);fill-opacity:1;" d="M 69.285156 29.867188 L 69.90625 29.621094 C 69.964844 29.597656 70.023438 29.574219 70.085938 29.550781 C 67.71875 28.675781 66.269531 26.277344 66.597656 23.769531 C 66.929688 21.265625 68.949219 19.324219 71.464844 19.097656 L 71.035156 21.28125 L 72.679688 19.121094 L 72.691406 19.121094 C 75.648438 19.527344 77.714844 22.253906 77.308594 25.210938 C 77.296875 25.3125 77.273438 25.414062 77.253906 25.511719 C 77.761719 25.113281 78.238281 24.671875 78.59375 24.160156 C 79.3125 23.117188 79.558594 21.832031 79.808594 20.261719 C 80.300781 17.148438 80.746094 14 81.148438 10.855469 C 78.605469 10.089844 76.996094 7.585938 77.355469 4.953125 C 77.378906 4.789062 77.410156 4.628906 77.445312 4.472656 C 77.457031 4.433594 77.464844 4.390625 77.476562 4.355469 C 77.511719 4.199219 77.558594 4.050781 77.605469 3.902344 C 77.617188 3.878906 77.625 3.855469 77.632812 3.832031 C 77.679688 3.707031 77.726562 3.585938 77.785156 3.46875 C 77.804688 3.425781 77.824219 3.378906 77.84375 3.339844 C 77.90625 3.207031 77.972656 3.082031 78.042969 2.960938 C 78.070312 2.917969 78.09375 2.878906 78.117188 2.839844 C 78.175781 2.75 78.234375 2.660156 78.292969 2.574219 C 78.328125 2.53125 78.359375 2.484375 78.390625 2.441406 L 78.417969 2.40625 C 79.996094 0.335938 82.832031 -0.3125 85.152344 0.871094 L 84.589844 3.714844 L 86.214844 1.578125 C 88.007812 3.097656 88.605469 5.609375 87.6875 7.773438 L 87.691406 7.773438 C 87.679688 7.8125 87.660156 7.84375 87.644531 7.882812 C 87.613281 7.949219 87.582031 8.015625 87.554688 8.078125 C 87.511719 8.164062 87.464844 8.246094 87.421875 8.328125 C 87.386719 8.386719 87.355469 8.449219 87.316406 8.507812 C 87.265625 8.597656 87.207031 8.679688 87.148438 8.761719 C 87.113281 8.8125 87.082031 8.863281 87.046875 8.910156 C 86.957031 9.035156 86.855469 9.15625 86.753906 9.273438 C 86.71875 9.3125 86.679688 9.347656 86.640625 9.390625 C 86.566406 9.464844 86.496094 9.542969 86.417969 9.617188 C 86.367188 9.660156 86.320312 9.707031 86.269531 9.75 C 86.199219 9.8125 86.125 9.871094 86.050781 9.929688 C 85.996094 9.972656 85.941406 10.011719 85.886719 10.050781 C 85.808594 10.109375 85.730469 10.160156 85.648438 10.214844 C 85.59375 10.25 85.542969 10.285156 85.488281 10.320312 C 85.394531 10.375 85.300781 10.425781 85.207031 10.472656 C 85.160156 10.5 85.117188 10.527344 85.0625 10.550781 C 84.921875 10.617188 84.773438 10.683594 84.625 10.738281 C 84.597656 10.75 84.566406 10.757812 84.539062 10.769531 C 84.414062 10.8125 84.289062 10.859375 84.164062 10.890625 C 84.105469 10.90625 84.050781 10.917969 83.996094 10.933594 C 83.890625 10.957031 83.785156 10.980469 83.679688 11 C 83.621094 11.011719 83.558594 11.019531 83.496094 11.03125 C 83.390625 11.046875 83.285156 11.058594 83.179688 11.066406 C 83.117188 11.070312 83.058594 11.078125 82.992188 11.082031 C 82.878906 11.085938 82.765625 11.085938 82.652344 11.085938 C 82.644531 11.085938 82.636719 11.085938 82.628906 11.085938 C 82.457031 12.410156 82.28125 13.734375 82.09375 15.058594 C 82.976562 13.863281 84.316406 13.085938 85.792969 12.910156 C 87.269531 12.734375 88.75 13.175781 89.890625 14.128906 L 88.476562 16.527344 L 90.75 15.027344 C 91.613281 16.167969 91.984375 17.601562 91.789062 19.015625 C 91.722656 19.511719 91.585938 19.996094 91.382812 20.457031 C 90.496094 22.484375 88.457031 23.765625 86.242188 23.6875 C 84.03125 23.605469 82.089844 22.183594 81.347656 20.09375 C 81.328125 20.226562 81.308594 20.363281 81.285156 20.496094 C 81.066406 21.882812 80.792969 23.609375 79.820312 25.011719 C 79.164062 25.964844 78.257812 26.667969 77.378906 27.289062 C 76.804688 27.691406 76.21875 28.074219 75.617188 28.441406 C 74.988281 29.023438 74.230469 29.449219 73.40625 29.683594 C 72.441406 30.175781 71.460938 30.621094 70.453125 31.019531 L 69.828125 31.265625 C 69.261719 31.484375 68.6875 31.710938 68.113281 31.949219 C 68.203125 31.960938 68.292969 31.964844 68.382812 31.976562 C 70.714844 32.296875 72.570312 34.089844 72.972656 36.40625 L 69.15625 38.492188 L 72.960938 38.324219 C 72.808594 39.167969 72.457031 39.960938 71.929688 40.640625 C 70.140625 42.957031 66.832031 43.429688 64.46875 41.699219 L 64.65625 42.054688 C 64.785156 42.285156 64.90625 42.519531 65.027344 42.75 C 66.683594 45.886719 66.804688 48.59375 65.367188 50.378906 L 64.195312 49.433594 C 65.59375 47.699219 64.484375 44.941406 63.699219 43.449219 C 63.578125 43.226562 63.457031 43 63.335938 42.769531 C 62.273438 40.796875 61.070312 38.5625 61.550781 36.1875 C 62.273438 32.601562 66.160156 31.085938 69.285156 29.867188 Z M 69.285156 29.867188 "/>
<path style=" stroke:none;fill-rule:nonzero;fill:rgb(94.901961%,94.901961%,94.901961%);fill-opacity:1;" d="M 24.332031 46.859375 L 23.847656 46.667969 C 23.800781 46.652344 23.757812 46.628906 23.707031 46.613281 C 25.558594 45.929688 26.6875 44.054688 26.429688 42.101562 C 26.171875 40.144531 24.59375 38.628906 22.628906 38.449219 L 22.96875 40.15625 L 21.683594 38.46875 L 21.671875 38.46875 C 19.363281 38.785156 17.746094 40.914062 18.0625 43.226562 C 18.074219 43.304688 18.089844 43.382812 18.105469 43.460938 C 17.707031 43.160156 17.355469 42.804688 17.0625 42.402344 C 16.5 41.589844 16.308594 40.585938 16.113281 39.359375 C 15.730469 36.925781 15.382812 34.46875 15.070312 32.015625 C 17.058594 31.414062 18.3125 29.460938 18.03125 27.40625 C 18.011719 27.277344 17.988281 27.152344 17.957031 27.03125 L 17.9375 26.9375 C 17.90625 26.820312 17.871094 26.703125 17.832031 26.589844 C 17.828125 26.570312 17.820312 26.550781 17.8125 26.535156 C 17.777344 26.4375 17.738281 26.34375 17.695312 26.25 C 17.679688 26.214844 17.664062 26.179688 17.648438 26.144531 C 17.597656 26.046875 17.546875 25.945312 17.492188 25.851562 C 17.472656 25.820312 17.453125 25.789062 17.433594 25.761719 C 17.390625 25.691406 17.34375 25.621094 17.296875 25.554688 C 17.269531 25.519531 17.246094 25.484375 17.21875 25.449219 L 17.203125 25.421875 C 15.964844 23.804688 13.753906 23.300781 11.941406 24.21875 L 12.382812 26.441406 L 11.109375 24.773438 C 9.710938 25.960938 9.246094 27.921875 9.960938 29.613281 L 9.957031 29.613281 C 9.96875 29.640625 9.980469 29.667969 9.996094 29.695312 C 10.019531 29.746094 10.042969 29.796875 10.066406 29.851562 C 10.097656 29.914062 10.132812 29.980469 10.167969 30.042969 C 10.195312 30.089844 10.222656 30.140625 10.25 30.1875 C 10.292969 30.253906 10.339844 30.320312 10.382812 30.386719 C 10.410156 30.421875 10.433594 30.464844 10.460938 30.5 C 10.535156 30.597656 10.609375 30.691406 10.691406 30.78125 C 10.71875 30.8125 10.75 30.84375 10.78125 30.871094 C 10.839844 30.933594 10.894531 30.992188 10.957031 31.054688 C 10.992188 31.089844 11.035156 31.121094 11.070312 31.15625 C 11.128906 31.207031 11.183594 31.253906 11.242188 31.300781 C 11.285156 31.332031 11.328125 31.363281 11.367188 31.394531 C 11.429688 31.441406 11.492188 31.484375 11.554688 31.523438 C 11.597656 31.550781 11.640625 31.578125 11.683594 31.605469 C 11.753906 31.648438 11.828125 31.6875 11.902344 31.726562 C 11.941406 31.746094 11.976562 31.765625 12.011719 31.785156 C 12.125 31.839844 12.238281 31.886719 12.355469 31.933594 C 12.378906 31.941406 12.402344 31.945312 12.421875 31.957031 C 12.519531 31.992188 12.617188 32.023438 12.71875 32.050781 C 12.761719 32.0625 12.808594 32.074219 12.847656 32.082031 C 12.929688 32.101562 13.011719 32.121094 13.09375 32.136719 L 13.238281 32.160156 C 13.320312 32.171875 13.402344 32.179688 13.484375 32.1875 C 13.53125 32.191406 13.582031 32.195312 13.628906 32.199219 C 13.71875 32.203125 13.808594 32.203125 13.902344 32.203125 L 13.917969 32.203125 C 14.050781 33.238281 14.1875 34.277344 14.335938 35.308594 C 13.644531 34.375 12.601562 33.765625 11.449219 33.628906 C 10.296875 33.488281 9.136719 33.832031 8.246094 34.574219 L 9.339844 36.4375 L 7.5625 35.269531 C 6.890625 36.160156 6.597656 37.277344 6.75 38.382812 C 6.804688 38.773438 6.910156 39.152344 7.070312 39.507812 C 7.765625 41.09375 9.355469 42.09375 11.085938 42.03125 C 12.8125 41.96875 14.328125 40.859375 14.90625 39.226562 C 14.925781 39.332031 14.941406 39.4375 14.957031 39.542969 C 15.128906 40.625 15.339844 41.972656 16.097656 43.070312 C 16.613281 43.8125 17.320312 44.363281 18.007812 44.847656 C 18.457031 45.164062 18.914062 45.464844 19.382812 45.75 C 19.875 46.207031 20.464844 46.539062 21.109375 46.71875 C 21.863281 47.105469 22.632812 47.453125 23.417969 47.765625 L 23.90625 47.957031 C 24.34375 48.128906 24.796875 48.304688 25.242188 48.492188 C 25.171875 48.496094 25.101562 48.503906 25.027344 48.511719 C 23.210938 48.761719 21.761719 50.160156 21.445312 51.96875 L 24.421875 53.59375 L 21.449219 53.460938 C 21.714844 54.886719 22.695312 56.078125 24.042969 56.613281 C 25.390625 57.148438 26.917969 56.953125 28.089844 56.097656 C 28.039062 56.1875 27.992188 56.277344 27.941406 56.371094 C 27.84375 56.554688 27.746094 56.734375 27.652344 56.914062 C 26.359375 59.363281 26.265625 61.480469 27.386719 62.875 L 28.300781 62.136719 C 27.210938 60.78125 28.074219 58.628906 28.691406 57.464844 C 28.78125 57.289062 28.878906 57.109375 28.976562 56.929688 C 29.804688 55.394531 30.746094 53.648438 30.371094 51.789062 C 29.808594 48.996094 26.773438 47.816406 24.332031 46.859375 Z M 24.332031 46.859375 "/>
<path style=" stroke:none;fill-rule:nonzero;fill:rgb(24.705882%,23.921569%,33.72549%);fill-opacity:1;" d="M 100 63.894531 C 100 62.722656 77.613281 61.773438 50 61.773438 C 22.386719 61.773438 0 62.722656 0 63.894531 C 0 65.066406 22.386719 66.015625 50 66.015625 C 77.613281 66.015625 100 65.066406 100 63.894531 Z M 100 63.894531 "/>
<use xlink:href="#surface5" mask="url(#mask0)"/>
<path style=" stroke:none;fill-rule:nonzero;fill:rgb(24.705882%,23.921569%,33.72549%);fill-opacity:1;" d="M 100 62.722656 C 100 61.550781 77.613281 60.597656 50 60.597656 C 22.386719 60.597656 0 61.550781 0 62.722656 C 0 63.890625 22.386719 64.84375 50 64.84375 C 77.613281 64.84375 100 63.890625 100 62.722656 Z M 100 62.722656 "/>
<path style="fill:none;stroke-width:4;stroke-linecap:butt;stroke-linejoin:miter;stroke:rgb(24.705882%,23.921569%,33.72549%);stroke-opacity:1;stroke-miterlimit:10;" d="M 131.004375 770.717588 C 128.017969 765.222973 131.393906 758.473684 135.289219 753.54151 C 139.14125 748.609337 143.902187 743.54737 143.772344 737.273991 C 143.6425 728.274938 134.077344 722.953383 126.459844 718.194268 C 120.79 714.646565 115.59625 710.449891 110.878594 705.690777 C 108.930937 703.830395 107.329531 701.667161 106.117656 699.287604 C 104.559531 695.739901 104.602812 691.75955 104.689375 687.908994 C 105.035625 675.059384 105.641563 662.209775 106.59375 649.40343 " transform="matrix(0.0902527,0,0,0.0902873,-4.151625,-7.621149)"/>
<path style=" stroke:none;fill-rule:nonzero;fill:rgb(42.352941%,38.823529%,100%);fill-opacity:1;" d="M 4.160156 50.949219 C 4.179688 50.515625 4.417969 50.125 4.792969 49.910156 L 5.078125 50.472656 L 5.070312 49.792969 C 5.203125 49.753906 5.34375 49.734375 5.484375 49.742188 C 6.183594 49.777344 6.71875 50.367188 6.6875 51.0625 C 6.652344 51.761719 6.0625 52.300781 5.367188 52.265625 C 4.667969 52.234375 4.128906 51.644531 4.160156 50.949219 Z M 4.160156 50.949219 "/>
<path style=" stroke:none;fill-rule:nonzero;fill:rgb(42.352941%,38.823529%,100%);fill-opacity:1;" d="M 6.421875 59.527344 C 6.679688 60.039062 7.253906 60.316406 7.816406 60.191406 C 8.382812 60.070312 8.789062 59.582031 8.8125 59.003906 C 8.820312 58.832031 8.792969 58.65625 8.730469 58.492188 C 8.542969 57.996094 8.070312 57.667969 7.539062 57.671875 C 7.011719 57.675781 6.539062 58.007812 6.359375 58.503906 L 7.152344 59.148438 L 6.28125 58.945312 C 6.28125 59.148438 6.328125 59.347656 6.421875 59.527344 Z M 6.421875 59.527344 "/>
<path style=" stroke:none;fill-rule:nonzero;fill:rgb(42.352941%,38.823529%,100%);fill-opacity:1;" d="M 7.046875 57.066406 C 7.699219 57.113281 8.285156 56.65625 8.386719 56.007812 C 8.492188 55.359375 8.085938 54.738281 7.449219 54.578125 L 7.453125 55.101562 L 7.167969 54.535156 C 6.46875 54.5 5.875 55.042969 5.84375 55.742188 C 5.808594 56.441406 6.351562 57.035156 7.050781 57.066406 Z M 7.046875 57.066406 "/>
<path style=" stroke:none;fill-rule:nonzero;fill:rgb(42.352941%,38.823529%,100%);fill-opacity:1;" d="M 3.972656 55.019531 C 4.667969 55.050781 5.261719 54.511719 5.292969 53.8125 C 5.328125 53.117188 4.789062 52.523438 4.089844 52.492188 C 3.851562 52.480469 3.617188 52.535156 3.410156 52.652344 L 3.636719 53.265625 L 3.175781 52.824219 C 2.925781 53.046875 2.78125 53.363281 2.765625 53.699219 C 2.757812 53.8125 2.769531 53.929688 2.796875 54.046875 C 2.925781 54.59375 3.40625 54.992188 3.972656 55.019531 Z M 3.972656 55.019531 "/>
<use xlink:href="#surface8" mask="url(#mask1)"/>
<use xlink:href="#surface11" mask="url(#mask2)"/>
<use xlink:href="#surface14" mask="url(#mask3)"/>
<use xlink:href="#surface17" mask="url(#mask4)"/>
<path style=" stroke:none;fill-rule:nonzero;fill:rgb(39.607843%,38.823529%,50.196078%);fill-opacity:1;" d="M 9.582031 61.394531 C 9.582031 61.394531 8.582031 61.363281 8.285156 61.148438 C 7.984375 60.933594 6.75 60.675781 6.671875 61.023438 C 6.59375 61.367188 5.167969 62.738281 6.296875 62.742188 C 7.425781 62.746094 8.917969 62.5625 9.21875 62.382812 C 9.519531 62.199219 9.582031 61.394531 9.582031 61.394531 Z M 9.582031 61.394531 "/>
<use xlink:href="#surface20" mask="url(#mask5)"/>
<path style="fill:none;stroke-width:4;stroke-linecap:butt;stroke-linejoin:miter;stroke:rgb(24.705882%,23.921569%,33.72549%);stroke-opacity:1;stroke-miterlimit:10;" d="M 1100.980469 779.716641 C 1097.994062 774.222027 1101.413281 767.472737 1105.265312 762.540563 C 1109.160625 757.60839 1113.878281 752.546423 1113.791719 746.273045 C 1113.661875 737.273991 1104.096719 731.952436 1096.479219 727.193321 C 1090.809375 723.645618 1085.572344 719.448944 1080.897969 714.68983 C 1078.950313 712.829448 1077.348906 710.666214 1076.137031 708.286657 C 1074.535625 704.738954 1074.578906 700.758603 1074.70875 696.908047 C 1075.011719 684.058437 1075.660938 671.208828 1076.569844 658.402483 " transform="matrix(0.0902527,0,0,0.0902873,-4.151625,-7.621149)"/>
<path style=" stroke:none;fill-rule:nonzero;fill:rgb(42.352941%,38.823529%,100%);fill-opacity:1;" d="M 91.707031 51.761719 C 91.726562 51.328125 91.964844 50.9375 92.339844 50.722656 L 92.621094 51.285156 L 92.613281 50.605469 C 92.75 50.566406 92.890625 50.546875 93.03125 50.554688 C 93.726562 50.589844 94.261719 51.179688 94.230469 51.878906 C 94.195312 52.574219 93.605469 53.113281 92.910156 53.078125 C 92.214844 53.046875 91.675781 52.457031 91.707031 51.761719 Z M 91.707031 51.761719 "/>
<path style=" stroke:none;fill-rule:nonzero;fill:rgb(42.352941%,38.823529%,100%);fill-opacity:1;" d="M 93.964844 60.339844 C 94.226562 60.855469 94.800781 61.128906 95.363281 61.003906 C 95.925781 60.882812 96.335938 60.394531 96.355469 59.816406 C 96.367188 59.644531 96.339844 59.46875 96.273438 59.304688 C 96.089844 58.808594 95.613281 58.480469 95.085938 58.484375 C 94.554688 58.488281 94.085938 58.820312 93.90625 59.316406 L 94.695312 59.960938 L 93.824219 59.757812 C 93.824219 59.960938 93.875 60.160156 93.964844 60.339844 Z M 93.964844 60.339844 "/>
<path style=" stroke:none;fill-rule:nonzero;fill:rgb(42.352941%,38.823529%,100%);fill-opacity:1;" d="M 94.589844 57.878906 C 95.246094 57.925781 95.828125 57.46875 95.933594 56.820312 C 96.039062 56.171875 95.628906 55.550781 94.992188 55.390625 L 95 55.914062 L 94.714844 55.347656 C 94.015625 55.3125 93.421875 55.855469 93.386719 56.554688 C 93.355469 57.253906 93.894531 57.847656 94.59375 57.878906 Z M 94.589844 57.878906 "/>
<path style=" stroke:none;fill-rule:nonzero;fill:rgb(42.352941%,38.823529%,100%);fill-opacity:1;" d="M 91.515625 55.832031 C 92.214844 55.863281 92.804688 55.324219 92.839844 54.625 C 92.871094 53.929688 92.332031 53.335938 91.636719 53.304688 C 91.398438 53.292969 91.164062 53.347656 90.957031 53.464844 L 91.179688 54.078125 L 90.71875 53.636719 C 90.472656 53.859375 90.324219 54.175781 90.308594 54.511719 C 90.304688 54.625 90.316406 54.742188 90.34375 54.859375 C 90.472656 55.40625 90.953125 55.804688 91.515625 55.832031 Z M 91.515625 55.832031 "/>
<use xlink:href="#surface23" mask="url(#mask6)"/>
<use xlink:href="#surface26" mask="url(#mask7)"/>
<use xlink:href="#surface29" mask="url(#mask8)"/>
<use xlink:href="#surface32" mask="url(#mask9)"/>
<path style=" stroke:none;fill-rule:nonzero;fill:rgb(39.607843%,38.823529%,50.196078%);fill-opacity:1;" d="M 97.128906 62.207031 C 97.128906 62.207031 96.128906 62.175781 95.828125 61.960938 C 95.527344 61.746094 94.292969 61.488281 94.214844 61.835938 C 94.136719 62.179688 92.714844 63.550781 93.84375 63.554688 C 94.972656 63.558594 96.464844 63.375 96.765625 63.195312 C 97.066406 63.011719 97.128906 62.207031 97.128906 62.207031 Z M 97.128906 62.207031 "/>
<use xlink:href="#surface35" mask="url(#mask10)"/>
<path style=" stroke:none;fill-rule:nonzero;fill:rgb(32.54902%,75.686275%,87.058824%);fill-opacity:1;" d="M 67.289062 29.898438 C 66.691406 29.695312 66.089844 29.503906 65.484375 29.328125 C 65.585938 28.921875 65.675781 28.511719 65.761719 28.097656 C 67.128906 21.460938 66.238281 16.113281 63.183594 14.355469 C 60.257812 12.664062 55.472656 14.425781 50.640625 18.632812 C 50.164062 19.050781 49.699219 19.476562 49.242188 19.914062 C 48.9375 19.621094 48.628906 19.335938 48.3125 19.054688 C 43.25 14.558594 38.175781 12.660156 35.125 14.425781 C 32.203125 16.121094 31.332031 21.144531 32.566406 27.4375 C 32.6875 28.058594 32.824219 28.679688 32.980469 29.292969 C 32.261719 29.5 31.570312 29.714844 30.90625 29.949219 C 24.964844 32.015625 21.175781 35.265625 21.175781 38.632812 C 21.175781 42.109375 25.246094 45.597656 31.429688 47.710938 C 31.933594 47.882812 32.4375 48.039062 32.945312 48.1875 C 32.78125 48.847656 32.636719 49.515625 32.507812 50.1875 C 31.332031 56.371094 32.25 61.277344 35.164062 62.960938 C 38.175781 64.699219 43.230469 62.910156 48.152344 58.609375 C 48.539062 58.269531 48.929688 57.90625 49.324219 57.527344 C 49.816406 58.003906 50.320312 58.464844 50.839844 58.914062 C 55.605469 63.015625 60.316406 64.671875 63.226562 62.984375 C 66.238281 61.246094 67.214844 55.972656 65.945312 49.558594 C 65.847656 49.066406 65.738281 48.566406 65.609375 48.058594 C 65.964844 47.953125 66.3125 47.84375 66.652344 47.730469 C 73.082031 45.601562 77.265625 42.15625 77.265625 38.632812 C 77.265625 35.253906 73.351562 31.984375 67.292969 29.898438 Z M 67.289062 29.898438 "/>
<path style=" stroke:none;fill-rule:nonzero;fill:rgb(100%,100%,100%);fill-opacity:1;" d="M 65.894531 45.457031 C 65.589844 45.558594 65.273438 45.65625 64.953125 45.753906 C 64.167969 43.320312 63.21875 40.945312 62.113281 38.644531 C 63.179688 36.371094 64.089844 34.03125 64.84375 31.640625 C 65.417969 31.804688 65.972656 31.980469 66.511719 32.164062 C 71.699219 33.953125 74.867188 36.59375 74.867188 38.632812 C 74.867188 40.800781 71.445312 43.617188 65.894531 45.457031 Z M 63.59375 50.023438 C 64.152344 52.859375 64.234375 55.421875 63.863281 57.425781 C 63.527344 59.226562 62.855469 60.429688 62.027344 60.910156 C 60.257812 61.933594 56.480469 60.605469 52.402344 57.09375 C 51.933594 56.691406 51.464844 56.261719 50.992188 55.808594 C 52.691406 53.925781 54.261719 51.929688 55.691406 49.835938 C 58.25 49.621094 60.789062 49.226562 63.289062 48.664062 C 63.402344 49.125 63.503906 49.574219 63.59375 50.015625 Z M 40.296875 60.734375 C 38.570312 61.34375 37.191406 61.363281 36.363281 60.882812 C 34.59375 59.863281 33.855469 55.917969 34.859375 50.636719 C 34.980469 50.011719 35.117188 49.390625 35.269531 48.773438 C 37.761719 49.308594 40.289062 49.675781 42.828125 49.867188 C 44.300781 51.957031 45.910156 53.941406 47.644531 55.816406 C 47.296875 56.15625 46.9375 56.484375 46.574219 56.804688 C 44.398438 58.707031 42.21875 60.054688 40.296875 60.734375 Z M 32.207031 45.445312 C 29.46875 44.507812 27.210938 43.292969 25.664062 41.96875 C 24.273438 40.777344 23.570312 39.59375 23.570312 38.632812 C 23.570312 36.589844 26.617188 33.980469 31.691406 32.210938 C 32.332031 31.988281 32.972656 31.789062 33.625 31.605469 C 34.378906 34.023438 35.292969 36.390625 36.355469 38.691406 C 35.277344 41.023438 34.351562 43.421875 33.589844 45.875 C 33.125 45.742188 32.664062 45.597656 32.207031 45.445312 Z M 34.917969 26.976562 C 33.863281 21.585938 34.5625 17.519531 36.324219 16.503906 C 38.203125 15.417969 42.351562 16.964844 46.722656 20.851562 C 47.003906 21.097656 47.285156 21.359375 47.566406 21.625 C 45.84375 23.492188 44.246094 25.46875 42.789062 27.542969 C 40.269531 27.769531 37.769531 28.15625 35.304688 28.707031 C 35.160156 28.132812 35.03125 27.554688 34.917969 26.976562 Z M 59.117188 32.953125 C 58.566406 32.003906 58 31.070312 57.410156 30.144531 C 59.199219 30.371094 60.914062 30.671875 62.523438 31.039062 C 62.007812 32.679688 61.410156 34.292969 60.730469 35.871094 C 60.210938 34.886719 59.671875 33.914062 59.117188 32.953125 Z M 49.246094 23.339844 C 50.410156 24.613281 51.511719 25.941406 52.546875 27.324219 C 50.335938 27.21875 48.128906 27.21875 45.917969 27.324219 C 47.007812 25.886719 48.121094 24.550781 49.246094 23.339844 Z M 39.316406 32.96875 C 38.765625 33.921875 38.238281 34.890625 37.734375 35.871094 C 37.035156 34.214844 36.441406 32.585938 35.953125 31.015625 C 37.550781 30.65625 39.257812 30.363281 41.035156 30.140625 C 40.441406 31.070312 39.867188 32.011719 39.316406 32.96875 Z M 41.085938 47.292969 C 39.351562 47.105469 37.628906 46.828125 35.921875 46.460938 C 36.417969 44.863281 37.027344 43.199219 37.738281 41.507812 C 38.246094 42.488281 38.777344 43.457031 39.328125 44.410156 C 39.890625 45.386719 40.476562 46.347656 41.085938 47.292969 Z M 49.3125 54.09375 C 48.175781 52.871094 47.042969 51.515625 45.9375 50.054688 C 47.011719 50.097656 48.105469 50.117188 49.21875 50.117188 C 50.363281 50.117188 51.492188 50.09375 52.605469 50.042969 C 51.578125 51.449219 50.476562 52.800781 49.3125 54.09375 Z M 60.746094 41.421875 C 61.460938 43.03125 62.09375 44.679688 62.636719 46.355469 C 60.90625 46.746094 59.160156 47.042969 57.402344 47.25 C 57.992188 46.308594 58.566406 45.355469 59.121094 44.394531 C 59.6875 43.414062 60.230469 42.425781 60.746094 41.421875 Z M 57.046875 43.195312 C 56.199219 44.671875 55.300781 46.121094 54.355469 47.539062 C 52.691406 47.660156 50.972656 47.71875 49.21875 47.71875 C 47.46875 47.71875 45.777344 47.667969 44.140625 47.558594 C 43.171875 46.144531 42.257812 44.695312 41.398438 43.210938 C 40.539062 41.726562 39.742188 40.21875 39.007812 38.6875 C 39.746094 37.152344 40.539062 35.644531 41.390625 34.164062 C 42.242188 32.6875 43.148438 31.242188 44.109375 29.832031 C 45.78125 29.707031 47.488281 29.640625 49.21875 29.640625 C 50.949219 29.640625 52.667969 29.707031 54.335938 29.832031 C 55.285156 31.238281 56.1875 32.679688 57.042969 34.148438 C 57.894531 35.621094 58.703125 37.121094 59.460938 38.652344 C 58.710938 40.195312 57.90625 41.707031 57.050781 43.195312 Z M 61.988281 16.429688 C 63.867188 17.515625 64.597656 21.882812 63.417969 27.613281 C 63.339844 27.988281 63.257812 28.359375 63.167969 28.730469 C 60.695312 28.167969 58.191406 27.773438 55.667969 27.542969 C 54.222656 25.464844 52.636719 23.488281 50.925781 21.625 C 51.347656 21.21875 51.777344 20.824219 52.214844 20.441406 C 56.355469 16.835938 60.226562 15.414062 61.988281 16.429688 Z M 61.988281 16.429688 "/>
<path style=" stroke:none;fill-rule:nonzero;fill:rgb(32.54902%,75.686275%,87.058824%);fill-opacity:1;" d="M 49.21875 33.621094 C 51.984375 33.621094 54.226562 35.863281 54.226562 38.632812 C 54.226562 41.398438 51.984375 43.644531 49.21875 43.644531 C 46.453125 43.644531 44.210938 41.398438 44.210938 38.632812 C 44.207031 35.863281 46.453125 33.621094 49.21875 33.621094 "/>
<path style=" stroke:none;fill-rule:nonzero;fill:rgb(24.705882%,23.921569%,33.72549%);fill-opacity:1;" d="M 50.476562 1.84375 C 50.476562 2.667969 49.804688 3.339844 48.976562 3.339844 C 48.148438 3.339844 47.476562 2.667969 47.476562 1.84375 C 47.476562 1.015625 48.148438 0.34375 48.976562 0.34375 C 49.375 0.339844 49.757812 0.5 50.039062 0.78125 C 50.320312 1.0625 50.476562 1.445312 50.476562 1.84375 Z M 50.476562 1.84375 "/>
<path style=" stroke:none;fill-rule:nonzero;fill:rgb(24.705882%,23.921569%,33.72549%);fill-opacity:1;" d="M 47.78125 2.21875 C 47.539062 1.785156 47.53125 1.257812 47.753906 0.8125 C 47.980469 0.367188 48.414062 0.0664062 48.90625 0.00390625 C 48.34375 -0.015625 47.816406 0.28125 47.542969 0.773438 C 47.269531 1.265625 47.296875 1.871094 47.613281 2.339844 C 47.925781 2.804688 48.476562 3.058594 49.035156 2.992188 C 48.511719 2.972656 48.035156 2.679688 47.78125 2.21875 Z M 47.78125 2.21875 "/>
<path style=" stroke:none;fill-rule:nonzero;fill:rgb(24.705882%,23.921569%,33.72549%);fill-opacity:1;" d="M 47.105469 3.929688 L 51.117188 3.929688 L 51.117188 10.191406 L 47.105469 10.191406 Z M 47.105469 3.929688 "/>
<use xlink:href="#surface38" mask="url(#mask11)"/>
<path style=" stroke:none;fill-rule:nonzero;fill:rgb(62.745098%,38.039216%,41.568627%);fill-opacity:1;" d="M 40.761719 26.652344 C 40.761719 26.652344 40.335938 27.832031 39.320312 27.992188 C 38.304688 28.152344 37.714844 28.417969 37.714844 28.417969 L 40.121094 29.972656 L 41.40625 29.8125 C 41.40625 29.8125 41.566406 28.152344 42.101562 27.777344 C 42.636719 27.402344 40.761719 26.652344 40.761719 26.652344 Z M 40.761719 26.652344 "/>
<path style=" stroke:none;fill-rule:nonzero;fill:rgb(62.745098%,38.039216%,41.568627%);fill-opacity:1;" d="M 58.152344 26.652344 C 58.152344 26.652344 58.582031 27.832031 59.597656 27.992188 C 60.613281 28.152344 61.203125 28.417969 61.203125 28.417969 L 58.796875 29.972656 L 57.511719 29.8125 C 57.511719 29.8125 57.351562 28.152344 56.816406 27.777344 C 56.28125 27.402344 58.152344 26.652344 58.152344 26.652344 Z M 58.152344 26.652344 "/>
<path style=" stroke:none;fill-rule:nonzero;fill:rgb(24.705882%,23.921569%,33.72549%);fill-opacity:1;" d="M 46.433594 16.269531 C 46.433594 16.269531 45.792969 16.589844 45.578125 17.230469 C 45.578125 17.230469 44.40625 17.605469 43.761719 18.625 C 43.761719 18.625 42.957031 19.480469 42.851562 19.910156 C 42.742188 20.335938 41.515625 22.90625 41.515625 22.90625 C 41.515625 22.90625 40.285156 26.921875 39.644531 27.347656 C 39.644531 27.347656 41.675781 26.921875 42.050781 28.957031 C 42.050781 28.957031 42.53125 28.957031 43.066406 27.082031 C 43.601562 25.207031 44.886719 22.90625 44.886719 22.90625 C 44.886719 22.90625 45.316406 21.300781 45.691406 21.03125 C 46.0625 20.765625 46.652344 19.535156 47.1875 19.859375 C 47.722656 20.183594 51.253906 19.804688 51.253906 19.804688 C 51.253906 19.804688 53.339844 20.765625 53.390625 21.40625 C 53.445312 22.050781 53.820312 22.101562 53.871094 22.636719 C 53.925781 23.175781 55.90625 27.402344 55.90625 27.402344 C 55.90625 27.402344 56.28125 28.574219 56.386719 28.847656 C 56.386719 28.847656 57.5625 26.011719 59.117188 27.617188 C 59.117188 27.617188 59.0625 26.546875 58.582031 25.902344 C 58.101562 25.257812 56.011719 20.226562 56.011719 20.226562 C 56.011719 20.226562 55.800781 19.476562 55.585938 19.265625 C 55.371094 19.050781 53.710938 17.335938 53.125 17.335938 C 53.125 17.335938 52.804688 16.535156 52.429688 16.425781 Z M 46.433594 16.269531 "/>
<path style=" stroke:none;fill-rule:nonzero;fill:rgb(24.705882%,23.921569%,33.72549%);fill-opacity:1;" d="M 41.617188 29.4375 C 40.769531 29.777344 39.800781 29.648438 39.070312 29.09375 C 38.722656 28.828125 38.339844 28.605469 37.9375 28.433594 C 37.367188 28.207031 36.691406 28.035156 36.484375 28.417969 C 36.109375 29.117188 41.03125 30.828125 41.03125 30.828125 C 41.03125 30.828125 41.671875 30.453125 41.617188 29.4375 Z M 41.617188 29.4375 "/>
<path style=" stroke:none;fill-rule:nonzero;fill:rgb(24.705882%,23.921569%,33.72549%);fill-opacity:1;" d="M 57.296875 29.4375 C 58.148438 29.777344 59.113281 29.648438 59.84375 29.09375 C 60.195312 28.828125 60.574219 28.605469 60.980469 28.433594 C 61.546875 28.207031 62.226562 28.035156 62.433594 28.417969 C 62.808594 29.117188 57.886719 30.828125 57.886719 30.828125 C 57.886719 30.828125 57.242188 30.453125 57.296875 29.4375 Z M 57.296875 29.4375 "/>
<path style=" stroke:none;fill-rule:nonzero;fill:rgb(62.745098%,38.039216%,41.568627%);fill-opacity:1;" d="M 48.183594 7.464844 C 48.164062 7.648438 48.101562 7.851562 47.945312 7.949219 C 47.8125 8.03125 47.648438 8.023438 47.5 8.054688 C 47.179688 8.136719 46.917969 8.363281 46.792969 8.667969 C 46.675781 8.96875 46.652344 9.300781 46.726562 9.621094 C 46.761719 9.773438 46.808594 9.925781 46.863281 10.074219 C 47.019531 10.519531 47.210938 10.960938 47.503906 11.332031 C 47.753906 11.625 48.035156 11.890625 48.34375 12.121094 C 48.535156 12.277344 48.730469 12.433594 48.964844 12.507812 C 49.125 12.550781 49.289062 12.570312 49.453125 12.574219 C 49.65625 12.582031 49.871094 12.589844 50.046875 12.488281 C 50.320312 12.332031 50.398438 11.988281 50.546875 11.710938 C 50.671875 11.476562 50.855469 11.273438 50.972656 11.035156 C 51.054688 10.847656 51.117188 10.648438 51.152344 10.445312 L 51.402344 9.335938 C 51.492188 8.933594 51.578125 8.476562 51.351562 8.132812 C 51.332031 8.105469 51.3125 8.082031 51.285156 8.0625 C 51.238281 8.046875 51.191406 8.039062 51.144531 8.050781 C 50.859375 8.066406 50.570312 8.003906 50.320312 7.859375 C 50.28125 7.839844 50.246094 7.8125 50.214844 7.777344 C 50.179688 7.722656 50.160156 7.65625 50.152344 7.585938 C 50.128906 7.449219 50.089844 7.316406 50.039062 7.1875 C 50.023438 7.140625 49.996094 7.097656 49.960938 7.066406 C 49.921875 7.039062 49.878906 7.027344 49.832031 7.023438 C 49.445312 6.960938 49.054688 6.917969 48.664062 6.902344 C 48.535156 6.894531 48.34375 6.84375 48.253906 6.957031 C 48.167969 7.070312 48.195312 7.328125 48.183594 7.464844 Z M 48.183594 7.464844 "/>
<use xlink:href="#surface41" mask="url(#mask12)"/>
<path style=" stroke:none;fill-rule:nonzero;fill:rgb(42.352941%,38.823529%,100%);fill-opacity:1;" d="M 47.460938 8.101562 C 47.25 8.039062 47.035156 8.007812 46.816406 8 C 46.300781 7.988281 45.746094 8.167969 45.449219 8.589844 C 45.246094 8.890625 45.171875 9.265625 45.242188 9.625 C 45.316406 9.980469 45.476562 10.3125 45.710938 10.585938 C 45.847656 10.730469 45.96875 10.890625 46.074219 11.058594 C 46.214844 11.332031 46.21875 11.652344 46.257812 11.960938 C 46.347656 12.695312 46.660156 13.382812 46.785156 14.113281 C 46.910156 14.839844 46.800781 15.6875 46.226562 16.148438 C 46.132812 16.226562 46.011719 16.308594 46.003906 16.433594 C 45.992188 16.628906 46.25 16.714844 46.449219 16.734375 C 47.039062 16.789062 47.644531 16.84375 48.21875 16.691406 C 48.457031 16.628906 48.6875 16.53125 48.929688 16.484375 C 49.542969 16.371094 50.160156 16.605469 50.773438 16.71875 C 51.21875 16.792969 51.667969 16.828125 52.117188 16.828125 C 52.222656 16.835938 52.328125 16.824219 52.429688 16.789062 C 52.53125 16.746094 52.59375 16.648438 52.585938 16.539062 C 52.566406 16.472656 52.527344 16.410156 52.480469 16.359375 C 52.167969 15.976562 52.074219 15.464844 51.988281 14.980469 L 51.703125 13.34375 C 51.550781 12.46875 51.410156 11.519531 51.824219 10.734375 C 52.121094 10.171875 52.667969 9.773438 52.980469 9.21875 C 53.089844 9.050781 53.140625 8.851562 53.121094 8.652344 C 53.074219 8.371094 52.824219 8.171875 52.566406 8.054688 C 52.066406 7.832031 51.503906 7.8125 50.992188 8 C 51 8.390625 50.902344 8.785156 50.839844 9.171875 L 50.730469 9.804688 C 50.671875 10.175781 50.59375 10.542969 50.484375 10.90625 C 50.445312 11.050781 50.378906 11.1875 50.289062 11.304688 C 50.191406 11.410156 50.074219 11.496094 49.941406 11.558594 C 49.660156 11.695312 49.34375 11.769531 49.027344 11.765625 C 48.890625 11.769531 48.753906 11.746094 48.625 11.703125 C 48.414062 11.613281 48.222656 11.480469 48.066406 11.3125 C 48.011719 11.265625 47.960938 11.210938 47.917969 11.152344 C 47.875 11.078125 47.839844 10.996094 47.820312 10.910156 C 47.746094 10.691406 47.6875 10.464844 47.648438 10.234375 C 47.621094 10.0625 47.609375 9.882812 47.597656 9.707031 C 47.5625 9.183594 47.5625 8.605469 47.460938 8.101562 Z M 47.460938 8.101562 "/>
<path style=" stroke:none;fill-rule:nonzero;fill:rgb(62.745098%,38.039216%,41.568627%);fill-opacity:1;" d="M 46.917969 18.460938 C 46.917969 18.460938 46.703125 21.300781 48.039062 21.78125 C 49.378906 22.261719 48.203125 19.425781 48.203125 19.425781 L 47.773438 18.570312 Z M 46.917969 18.460938 "/>
<path style=" stroke:none;fill-rule:nonzero;fill:rgb(62.745098%,38.039216%,41.568627%);fill-opacity:1;" d="M 51.464844 18.460938 C 51.464844 18.460938 51.679688 21.300781 50.339844 21.78125 C 49.003906 22.261719 50.179688 19.425781 50.179688 19.425781 L 50.609375 18.570312 Z M 51.464844 18.460938 "/>
<use xlink:href="#surface44" mask="url(#mask13)"/>
<path style=" stroke:none;fill-rule:nonzero;fill:rgb(42.352941%,38.823529%,100%);fill-opacity:1;" d="M 45.632812 8.933594 L 45.203125 9.632812 C 45.203125 9.632812 45.578125 12.039062 45.632812 12.46875 C 45.679688 12.777344 45.75 13.082031 45.847656 13.378906 C 45.847656 13.378906 45.902344 14.664062 45.902344 15.144531 C 45.902344 15.625 46.171875 16.429688 46.171875 16.429688 C 46.210938 16.882812 46.300781 17.332031 46.441406 17.765625 C 46.65625 18.355469 46.871094 19.050781 46.871094 19.050781 C 46.871094 19.050781 47.144531 18.300781 48.210938 19.425781 C 48.457031 19.175781 48.457031 18.769531 48.210938 18.515625 C 48.210938 18.515625 47.886719 17.074219 47.886719 16.320312 C 47.886719 15.570312 47.300781 11.988281 47.300781 11.988281 C 47.300781 11.988281 46.917969 7.917969 45.632812 8.933594 Z M 45.632812 8.933594 "/>
<use xlink:href="#surface47" mask="url(#mask14)"/>
<path style=" stroke:none;fill-rule:nonzero;fill:rgb(42.352941%,38.823529%,100%);fill-opacity:1;" d="M 52.855469 8.449219 L 53.128906 8.769531 C 53.128906 8.769531 53.441406 10.589844 52.746094 12.894531 L 52.53125 14.980469 C 52.53125 14.980469 52.15625 16.746094 52.105469 17.175781 C 52.050781 17.601562 52.050781 17.65625 51.945312 17.816406 C 51.875 17.894531 51.875 18.011719 51.945312 18.089844 L 51.625 19.265625 C 51.625 19.265625 51.144531 18.675781 50.179688 19.425781 C 50.179688 19.425781 49.910156 19 50.128906 18.625 C 50.34375 18.25 50.339844 18.089844 50.289062 17.980469 C 50.234375 17.875 50.5 17.339844 50.5 17.230469 C 50.5 17.125 50.875 14.664062 50.875 14.664062 C 50.875 14.664062 51.035156 12.253906 51.199219 11.449219 C 51.359375 10.648438 51.25 8.238281 51.25 8.238281 C 51.25 8.238281 52.105469 7.648438 52.855469 8.449219 Z M 52.855469 8.449219 "/>
<path style=" stroke:none;fill-rule:nonzero;fill:rgb(62.745098%,38.039216%,41.568627%);fill-opacity:1;" d="M 51.410156 5.5625 C 51.410156 6.746094 50.453125 7.703125 49.269531 7.703125 C 48.089844 7.703125 47.128906 6.746094 47.128906 5.5625 C 47.128906 4.378906 48.089844 3.421875 49.269531 3.421875 C 50.453125 3.421875 51.410156 4.378906 51.410156 5.5625 Z M 51.410156 5.5625 "/>
<use xlink:href="#surface50" mask="url(#mask15)"/>
<path style=" stroke:none;fill-rule:nonzero;fill:rgb(24.705882%,23.921569%,33.72549%);fill-opacity:1;" d="M 49.269531 2.457031 C 49.269531 2.457031 45.152344 1.011719 46.167969 8.023438 C 46.167969 8.023438 47.078125 8.613281 47.773438 8.238281 C 47.773438 8.238281 47.292969 3.367188 49.164062 3.582031 C 51.035156 3.796875 50.714844 8.132812 50.714844 8.132812 C 50.714844 8.132812 51.785156 8.453125 52.105469 7.859375 C 52.429688 7.269531 52 1.496094 49.269531 2.457031 Z M 49.269531 2.457031 "/>
<use xlink:href="#surface53" mask="url(#mask16)"/>
<use xlink:href="#surface56" mask="url(#mask17)"/>
<use xlink:href="#surface59" mask="url(#mask18)"/>
<path style="fill:none;stroke-width:4;stroke-linecap:butt;stroke-linejoin:miter;stroke:rgb(24.705882%,23.921569%,33.72549%);stroke-opacity:1;stroke-miterlimit:10;" d="M 872.715156 757.348802 C 877.476094 748.609337 872.109219 737.836432 865.92 730.005526 C 859.730781 722.174619 852.199844 713.997595 852.329687 704.003454 C 852.589375 689.639581 867.781094 681.202969 879.943125 673.588385 C 888.988906 667.920713 897.298906 661.257952 904.743281 653.643369 C 907.729687 650.614841 910.629531 647.326726 912.360781 643.432905 C 914.871094 637.851761 914.827813 631.448589 914.654688 625.305005 C 914.135313 604.840812 913.139844 584.419884 911.668281 563.998956 " transform="matrix(0.0902527,0,0,0.0902873,-4.151625,-7.621149)"/>
<path style=" stroke:none;fill-rule:nonzero;fill:rgb(42.352941%,38.823529%,100%);fill-opacity:1;" d="M 80.210938 43.203125 C 80.179688 42.515625 79.800781 41.890625 79.203125 41.546875 L 78.753906 42.441406 L 78.765625 41.359375 C 77.925781 41.109375 77.015625 41.433594 76.523438 42.160156 C 76.03125 42.886719 76.0625 43.847656 76.605469 44.539062 C 77.148438 45.230469 78.074219 45.492188 78.898438 45.1875 C 79.71875 44.882812 80.25 44.078125 80.210938 43.199219 Z M 80.210938 43.203125 "/>
<path style=" stroke:none;fill-rule:nonzero;fill:rgb(42.352941%,38.823529%,100%);fill-opacity:1;" d="M 76.613281 56.871094 C 76.175781 57.71875 75.203125 58.144531 74.285156 57.894531 C 73.363281 57.640625 72.746094 56.777344 72.804688 55.824219 C 72.859375 54.875 73.578125 54.089844 74.519531 53.949219 C 75.464844 53.808594 76.378906 54.351562 76.710938 55.246094 L 75.445312 56.273438 L 76.832031 55.949219 C 76.832031 56.269531 76.757812 56.585938 76.613281 56.871094 Z M 76.613281 56.871094 "/>
<path style=" stroke:none;fill-rule:nonzero;fill:rgb(42.352941%,38.823529%,100%);fill-opacity:1;" d="M 75.613281 52.949219 C 74.59375 52.992188 73.699219 52.265625 73.535156 51.253906 C 73.371094 50.242188 73.992188 49.269531 74.976562 48.988281 L 74.964844 49.820312 L 75.421875 48.917969 L 75.425781 48.917969 C 76.148438 48.878906 76.839844 49.230469 77.230469 49.839844 C 77.625 50.449219 77.660156 51.222656 77.328125 51.867188 C 76.992188 52.511719 76.339844 52.925781 75.613281 52.953125 Z M 75.613281 52.949219 "/>
<path style=" stroke:none;fill-rule:nonzero;fill:rgb(42.352941%,38.823529%,100%);fill-opacity:1;" d="M 80.515625 49.6875 C 79.660156 49.726562 78.871094 49.222656 78.550781 48.425781 C 78.226562 47.632812 78.441406 46.722656 79.085938 46.152344 C 79.730469 45.585938 80.660156 45.488281 81.40625 45.90625 L 81.046875 46.886719 L 81.78125 46.179688 C 82.382812 46.730469 82.589844 47.589844 82.3125 48.359375 C 82.035156 49.125 81.324219 49.648438 80.511719 49.6875 Z M 80.515625 49.6875 "/>
<use xlink:href="#surface62" mask="url(#mask19)"/>
<use xlink:href="#surface65" mask="url(#mask20)"/>
<use xlink:href="#surface68" mask="url(#mask21)"/>
<use xlink:href="#surface71" mask="url(#mask22)"/>
<path style=" stroke:none;fill-rule:nonzero;fill:rgb(39.607843%,38.823529%,50.196078%);fill-opacity:1;" d="M 71.570312 59.847656 C 71.570312 59.847656 73.164062 59.796875 73.644531 59.457031 C 74.128906 59.113281 76.097656 58.707031 76.214844 59.253906 C 76.335938 59.800781 78.609375 61.980469 76.8125 61.996094 C 75.011719 62.011719 72.632812 61.714844 72.152344 61.425781 C 71.675781 61.132812 71.570312 59.847656 71.570312 59.847656 Z M 71.570312 59.847656 "/>
<use xlink:href="#surface74" mask="url(#mask23)"/>
<path style=" stroke:none;fill-rule:nonzero;fill:rgb(94.901961%,94.901961%,94.901961%);fill-opacity:1;" d="M 29.152344 3.871094 L 27.503906 4.914062 L 28.503906 3.09375 C 28.222656 2.871094 27.871094 2.746094 27.511719 2.738281 L 27.484375 2.738281 C 27.371094 2.742188 27.257812 2.734375 27.144531 2.714844 L 26.585938 3.066406 L 26.824219 2.632812 C 26.429688 2.496094 26.085938 2.234375 25.847656 1.890625 L 24.847656 2.523438 L 25.480469 1.375 C 24.894531 0.671875 24.109375 0.242188 23.242188 0.242188 C 22.203125 0.242188 21.277344 0.863281 20.679688 1.824219 C 20.320312 2.410156 19.671875 2.757812 18.988281 2.738281 L 18.929688 2.738281 C 17.785156 2.738281 16.855469 4.039062 16.855469 5.644531 C 16.855469 7.25 17.785156 8.550781 18.929688 8.550781 C 19.183594 8.550781 19.429688 8.488281 19.652344 8.371094 C 20.402344 7.980469 21.382812 7.972656 22.167969 8.320312 C 22.84375 8.625 23.621094 8.628906 24.304688 8.324219 C 25.082031 7.984375 26.050781 7.992188 26.796875 8.375 C 27.015625 8.492188 27.261719 8.554688 27.511719 8.554688 C 28.65625 8.554688 29.585938 7.253906 29.585938 5.648438 C 29.59375 5.027344 29.445312 4.417969 29.152344 3.871094 Z M 29.152344 3.871094 "/>
<use xlink:href="#surface77" mask="url(#mask24)"/>
<path style=" stroke:none;fill-rule:nonzero;fill:rgb(94.901961%,94.901961%,94.901961%);fill-opacity:1;" d="M 72.207031 5.996094 L 71.390625 6.519531 L 71.890625 5.613281 C 71.746094 5.5 71.574219 5.4375 71.390625 5.433594 L 71.378906 5.433594 C 71.320312 5.433594 71.265625 5.429688 71.207031 5.421875 L 70.929688 5.601562 L 71.046875 5.378906 C 70.851562 5.3125 70.679688 5.183594 70.558594 5.011719 L 70.0625 5.328125 L 70.375 4.753906 C 70.109375 4.40625 69.699219 4.199219 69.261719 4.1875 C 68.742188 4.1875 68.28125 4.5 67.980469 4.976562 C 67.800781 5.269531 67.480469 5.441406 67.136719 5.429688 L 67.109375 5.429688 C 66.535156 5.429688 66.074219 6.078125 66.074219 6.875 C 66.074219 7.667969 66.535156 8.324219 67.109375 8.324219 C 67.234375 8.324219 67.359375 8.292969 67.46875 8.234375 C 67.863281 8.042969 68.324219 8.03125 68.722656 8.207031 C 69.0625 8.359375 69.449219 8.359375 69.789062 8.207031 C 70.1875 8.035156 70.640625 8.046875 71.03125 8.234375 C 71.144531 8.292969 71.269531 8.324219 71.394531 8.324219 C 71.964844 8.324219 72.429688 7.675781 72.429688 6.875 C 72.429688 6.566406 72.355469 6.265625 72.207031 5.996094 Z M 72.207031 5.996094 "/>
<use xlink:href="#surface80" mask="url(#mask25)"/>
<path style=" stroke:none;fill-rule:nonzero;fill:rgb(94.901961%,94.901961%,94.901961%);fill-opacity:1;" d="M 18.441406 19.488281 L 19.765625 20.328125 L 18.964844 18.867188 C 19.191406 18.6875 19.472656 18.589844 19.761719 18.585938 L 19.785156 18.585938 C 19.875 18.585938 19.964844 18.578125 20.054688 18.566406 L 20.5 18.847656 L 20.308594 18.5 C 20.625 18.386719 20.898438 18.179688 21.089844 17.90625 L 21.890625 18.414062 L 21.390625 17.492188 C 21.859375 16.929688 22.488281 16.589844 23.183594 16.589844 C 24.015625 16.589844 24.757812 17.085938 25.238281 17.855469 C 25.523438 18.324219 26.039062 18.601562 26.589844 18.585938 L 26.636719 18.585938 C 27.554688 18.585938 28.296875 19.628906 28.296875 20.914062 C 28.296875 22.199219 27.554688 23.242188 26.636719 23.242188 C 26.433594 23.242188 26.234375 23.191406 26.054688 23.097656 C 25.421875 22.789062 24.6875 22.777344 24.042969 23.058594 C 23.496094 23.300781 22.871094 23.300781 22.328125 23.058594 C 21.6875 22.78125 20.957031 22.796875 20.332031 23.097656 C 20.152344 23.191406 19.957031 23.238281 19.757812 23.238281 C 18.835938 23.238281 18.09375 22.195312 18.09375 20.910156 C 18.089844 20.414062 18.207031 19.925781 18.441406 19.488281 Z M 18.441406 19.488281 "/>
<use xlink:href="#surface83" mask="url(#mask26)"/>
</g>
</svg>
