<?xml version="1.0" encoding="UTF-8"?>
<svg xmlns="http://www.w3.org/2000/svg" xmlns:xlink="http://www.w3.org/1999/xlink" width="129pt" height="66pt" viewBox="0 0 129 66" version="1.1">
<defs>
<filter id="alpha" filterUnits="objectBoundingBox" x="0%" y="0%" width="100%" height="100%">
  <feColorMatrix type="matrix" in="SourceGraphic" values="0 0 0 0 1 0 0 0 0 1 0 0 0 0 1 0 0 0 1 0"/>
</filter>
<mask id="mask0">
  <g filter="url(#alpha)">
<rect x="0" y="0" width="129" height="66" style="fill:rgb(0%,0%,0%);fill-opacity:0.101961;stroke:none;"/>
  </g>
</mask>
<clipPath id="clip1">
  <rect width="129" height="66"/>
</clipPath>
<g id="surface6" clip-path="url(#clip1)">
<path style=" stroke:none;fill-rule:nonzero;fill:rgb(0%,0%,0%);fill-opacity:1;" d="M 7.824219 49.84375 C 8.179688 49.882812 8.523438 49.996094 8.878906 50.015625 C 9.234375 50.039062 9.628906 49.953125 9.851562 49.675781 C 9.972656 49.523438 10.035156 49.335938 10.136719 49.171875 C 10.234375 49.019531 10.367188 48.894531 10.523438 48.804688 C 10.777344 49.335938 10.707031 49.96875 10.34375 50.429688 C 9.976562 50.894531 9.382812 51.105469 8.808594 50.976562 C 8.234375 50.851562 7.785156 50.40625 7.648438 49.832031 C 7.707031 49.832031 7.765625 49.835938 7.824219 49.84375 Z M 7.824219 49.84375 "/>
</g>
<mask id="mask1">
  <g filter="url(#alpha)">
<rect x="0" y="0" width="129" height="66" style="fill:rgb(0%,0%,0%);fill-opacity:0.101961;stroke:none;"/>
  </g>
</mask>
<clipPath id="clip2">
  <rect width="129" height="66"/>
</clipPath>
<g id="surface9" clip-path="url(#clip2)">
<path style=" stroke:none;fill-rule:nonzero;fill:rgb(0%,0%,0%);fill-opacity:1;" d="M 7.386719 54.398438 C 7.925781 54.425781 8.4375 54.167969 8.738281 53.714844 C 9.039062 53.261719 9.082031 52.6875 8.847656 52.195312 C 8.726562 52.277344 8.621094 52.382812 8.539062 52.503906 C 8.429688 52.671875 8.363281 52.863281 8.234375 53.015625 C 7.996094 53.300781 7.585938 53.394531 7.214844 53.375 C 6.84375 53.359375 6.484375 53.253906 6.117188 53.21875 C 6.066406 53.21875 6.015625 53.210938 5.960938 53.210938 C 6.117188 53.882812 6.699219 54.367188 7.386719 54.398438 Z M 7.386719 54.398438 "/>
</g>
<mask id="mask2">
  <g filter="url(#alpha)">
<rect x="0" y="0" width="129" height="66" style="fill:rgb(0%,0%,0%);fill-opacity:0.101961;stroke:none;"/>
  </g>
</mask>
<clipPath id="clip3">
  <rect width="129" height="66"/>
</clipPath>
<g id="surface12" clip-path="url(#clip3)">
<path style=" stroke:none;fill-rule:nonzero;fill:rgb(0%,0%,0%);fill-opacity:1;" d="M 11.125 56.898438 C 11.660156 56.925781 12.167969 56.667969 12.46875 56.222656 C 12.773438 55.78125 12.820312 55.210938 12.601562 54.71875 C 12.472656 54.804688 12.359375 54.910156 12.269531 55.035156 C 12.152344 55.203125 12.078125 55.398438 11.941406 55.554688 C 11.683594 55.84375 11.246094 55.949219 10.855469 55.9375 C 10.460938 55.929688 10.105469 55.835938 9.726562 55.808594 C 9.917969 56.429688 10.476562 56.867188 11.125 56.898438 Z M 11.125 56.898438 "/>
</g>
<mask id="mask3">
  <g filter="url(#alpha)">
<rect x="0" y="0" width="129" height="66" style="fill:rgb(0%,0%,0%);fill-opacity:0.101961;stroke:none;"/>
  </g>
</mask>
<clipPath id="clip4">
  <rect width="129" height="66"/>
</clipPath>
<g id="surface15" clip-path="url(#clip4)">
<path style=" stroke:none;fill-rule:nonzero;fill:rgb(0%,0%,0%);fill-opacity:1;" d="M 10.355469 59.898438 C 10.703125 60.679688 11.613281 61.027344 12.386719 60.679688 C 13.160156 60.328125 13.507812 59.417969 13.160156 58.636719 C 13.035156 58.722656 12.921875 58.824219 12.824219 58.941406 C 12.675781 59.117188 12.582031 59.324219 12.414062 59.492188 C 12.097656 59.800781 11.589844 59.933594 11.136719 59.941406 C 10.875 59.941406 10.617188 59.929688 10.355469 59.898438 Z M 10.355469 59.898438 "/>
</g>
<mask id="mask4">
  <g filter="url(#alpha)">
<rect x="0" y="0" width="129" height="66" style="fill:rgb(0%,0%,0%);fill-opacity:0.2;stroke:none;"/>
  </g>
</mask>
<clipPath id="clip5">
  <rect width="129" height="66"/>
</clipPath>
<g id="surface18" clip-path="url(#clip5)">
<path style=" stroke:none;fill-rule:nonzero;fill:rgb(0%,0%,0%);fill-opacity:1;" d="M 10.183594 63.679688 C 11.554688 63.691406 13.367188 63.460938 13.734375 63.238281 C 14.011719 63.066406 14.125 62.457031 14.160156 62.175781 L 14.199219 62.175781 C 14.199219 62.175781 14.125 63.160156 13.761719 63.386719 C 13.402344 63.613281 11.582031 63.835938 10.210938 63.828125 C 9.816406 63.828125 9.679688 63.683594 9.6875 63.472656 C 9.738281 63.601562 9.890625 63.675781 10.183594 63.679688 Z M 10.183594 63.679688 "/>
</g>
<mask id="mask5">
  <g filter="url(#alpha)">
<rect x="0" y="0" width="129" height="66" style="fill:rgb(0%,0%,0%);fill-opacity:0.301961;stroke:none;"/>
  </g>
</mask>
<clipPath id="clip6">
  <rect width="129" height="66"/>
</clipPath>
<g id="surface21" clip-path="url(#clip6)">
<path style=" stroke:none;fill-rule:nonzero;fill:rgb(42.745098%,45.098039%,100%);fill-opacity:1;" d="M 66.335938 28.664062 L 104.09375 28.664062 C 104.167969 28.664062 104.230469 28.722656 104.230469 28.800781 L 104.230469 29.738281 C 104.230469 29.8125 104.167969 29.875 104.09375 29.875 L 66.335938 29.875 C 66.257812 29.875 66.199219 29.8125 66.199219 29.738281 L 66.199219 28.800781 C 66.199219 28.722656 66.257812 28.664062 66.335938 28.664062 Z M 66.335938 28.664062 "/>
</g>
<mask id="mask6">
  <g filter="url(#alpha)">
<rect x="0" y="0" width="129" height="66" style="fill:rgb(0%,0%,0%);fill-opacity:0.301961;stroke:none;"/>
  </g>
</mask>
<clipPath id="clip7">
  <rect width="129" height="66"/>
</clipPath>
<g id="surface24" clip-path="url(#clip7)">
<path style=" stroke:none;fill-rule:nonzero;fill:rgb(42.745098%,45.098039%,100%);fill-opacity:1;" d="M 66.335938 43.199219 L 104.09375 43.199219 C 104.167969 43.199219 104.230469 43.261719 104.230469 43.335938 L 104.230469 44.273438 C 104.230469 44.351562 104.167969 44.410156 104.09375 44.410156 L 66.335938 44.410156 C 66.257812 44.410156 66.199219 44.351562 66.199219 44.273438 L 66.199219 43.335938 C 66.199219 43.261719 66.257812 43.199219 66.335938 43.199219 Z M 66.335938 43.199219 "/>
</g>
<mask id="mask7">
  <g filter="url(#alpha)">
<rect x="0" y="0" width="129" height="66" style="fill:rgb(0%,0%,0%);fill-opacity:0.101961;stroke:none;"/>
  </g>
</mask>
<clipPath id="clip8">
  <rect width="129" height="66"/>
</clipPath>
<g id="surface27" clip-path="url(#clip8)">
<path style=" stroke:none;fill-rule:nonzero;fill:rgb(0%,0%,0%);fill-opacity:1;" d="M 110.132812 50.074219 C 110.132812 50.074219 107.664062 50.957031 106.324219 50.578125 L 106.945312 51.832031 C 106.945312 51.832031 110.132812 51.738281 110.695312 51.171875 C 111.253906 50.605469 110.132812 50.074219 110.132812 50.074219 Z M 110.132812 50.074219 "/>
</g>
<mask id="mask8">
  <g filter="url(#alpha)">
<rect x="0" y="0" width="129" height="66" style="fill:rgb(0%,0%,0%);fill-opacity:0.101961;stroke:none;"/>
  </g>
</mask>
<clipPath id="clip9">
  <rect width="129" height="66"/>
</clipPath>
<g id="surface30" clip-path="url(#clip9)">
<path style=" stroke:none;fill-rule:nonzero;fill:rgb(0%,0%,0%);fill-opacity:1;" d="M 113.628906 51.046875 L 114.5625 52.175781 C 114.5625 52.175781 116.121094 55.847656 112.722656 56.222656 C 109.328125 56.59375 106.792969 55.9375 106.792969 55.9375 C 106.792969 55.9375 105.421875 55.277344 105.390625 55.78125 C 105.355469 56.285156 105.234375 57.695312 104.484375 59.074219 L 103.824219 60.582031 C 103.621094 60.800781 103.53125 61.101562 103.578125 61.398438 C 103.671875 61.871094 101.484375 62.027344 101.515625 61.398438 C 101.515625 61.398438 101.828125 60.867188 101.828125 60.550781 C 101.828125 60.238281 102.328125 59.484375 102.328125 59.484375 L 103.234375 54.96875 C 103.234375 54.96875 103.171875 52.644531 105.292969 53.085938 C 107.417969 53.523438 110.445312 52.988281 110.445312 52.988281 L 111.128906 50.574219 Z M 113.628906 51.046875 "/>
</g>
<mask id="mask9">
  <g filter="url(#alpha)">
<rect x="0" y="0" width="129" height="66" style="fill:rgb(0%,0%,0%);fill-opacity:0.101961;stroke:none;"/>
  </g>
</mask>
<clipPath id="clip10">
  <rect width="129" height="66"/>
</clipPath>
<g id="surface33" clip-path="url(#clip10)">
<path style=" stroke:none;fill-rule:nonzero;fill:rgb(0%,0%,0%);fill-opacity:1;" d="M 123.195312 55.480469 L 123.632812 63.941406 L 123.644531 63.917969 L 123.839844 63 C 123.851562 62.949219 123.855469 62.894531 123.855469 62.84375 L 123.539062 56.191406 C 123.535156 56.082031 123.503906 55.976562 123.449219 55.882812 L 123.226562 55.511719 C 123.21875 55.5 123.207031 55.488281 123.195312 55.480469 Z M 123.195312 55.480469 "/>
</g>
</defs>
<g id="surface1">
<path style=" stroke:none;fill-rule:nonzero;fill:rgb(94.901961%,94.901961%,94.901961%);fill-opacity:1;" d="M 28.839844 38.59375 L 28.148438 38.160156 C 28.085938 38.121094 28.019531 38.074219 27.953125 38.035156 C 30.976562 37.511719 33.234375 34.953125 33.394531 31.875 C 33.550781 28.796875 31.570312 26.019531 28.617188 25.183594 L 28.652344 27.902344 L 27.164062 24.945312 L 27.148438 24.945312 C 23.527344 24.777344 20.457031 27.589844 20.289062 31.226562 C 20.28125 31.351562 20.289062 31.476562 20.289062 31.601562 C 19.773438 31.007812 19.300781 30.371094 18.992188 29.675781 C 18.363281 28.265625 18.351562 26.671875 18.402344 24.726562 C 18.5 20.882812 18.664062 17.007812 18.878906 13.144531 C 22.082031 12.785156 24.554688 10.140625 24.707031 6.902344 C 24.714844 6.703125 24.707031 6.503906 24.707031 6.304688 C 24.707031 6.253906 24.707031 6.207031 24.699219 6.15625 C 24.683594 5.964844 24.667969 5.777344 24.636719 5.589844 C 24.636719 5.558594 24.628906 5.527344 24.621094 5.5 C 24.59375 5.339844 24.5625 5.183594 24.523438 5.027344 C 24.511719 4.96875 24.496094 4.917969 24.480469 4.855469 C 24.433594 4.6875 24.386719 4.523438 24.324219 4.359375 C 24.304688 4.304688 24.28125 4.246094 24.261719 4.195312 C 24.214844 4.078125 24.164062 3.957031 24.113281 3.839844 C 24.082031 3.78125 24.054688 3.71875 24.027344 3.65625 C 24.019531 3.640625 24.011719 3.625 24.003906 3.609375 C 22.574219 0.773438 19.335938 -0.632812 16.300781 0.265625 L 16.34375 3.800781 L 14.875 0.878906 C 12.398438 2.304688 11.132812 5.183594 11.746094 7.988281 L 11.742188 7.988281 C 11.75 8.035156 11.765625 8.078125 11.777344 8.125 C 11.796875 8.214844 11.816406 8.300781 11.84375 8.386719 C 11.871094 8.496094 11.90625 8.605469 11.945312 8.714844 C 11.972656 8.796875 11.996094 8.878906 12.027344 8.957031 C 12.074219 9.074219 12.125 9.1875 12.175781 9.300781 C 12.203125 9.367188 12.230469 9.4375 12.261719 9.5 C 12.34375 9.671875 12.4375 9.839844 12.535156 10 C 12.566406 10.058594 12.605469 10.109375 12.644531 10.167969 C 12.714844 10.277344 12.785156 10.386719 12.863281 10.488281 C 12.910156 10.554688 12.960938 10.617188 13.007812 10.679688 C 13.082031 10.773438 13.15625 10.863281 13.230469 10.949219 C 13.28125 11.011719 13.339844 11.074219 13.394531 11.132812 C 13.476562 11.21875 13.558594 11.300781 13.644531 11.382812 C 13.699219 11.433594 13.753906 11.492188 13.816406 11.542969 C 13.910156 11.628906 14.011719 11.710938 14.113281 11.789062 C 14.164062 11.832031 14.214844 11.875 14.269531 11.914062 C 14.425781 12.023438 14.585938 12.132812 14.75 12.242188 C 14.78125 12.261719 14.816406 12.277344 14.84375 12.296875 C 14.984375 12.378906 15.125 12.457031 15.269531 12.527344 C 15.332031 12.558594 15.394531 12.585938 15.460938 12.613281 C 15.578125 12.667969 15.695312 12.71875 15.820312 12.765625 L 16.039062 12.84375 C 16.160156 12.882812 16.28125 12.921875 16.40625 12.953125 C 16.476562 12.972656 16.550781 12.992188 16.625 13.011719 C 16.757812 13.042969 16.894531 13.070312 17.035156 13.09375 L 17.058594 13.101562 C 16.96875 14.730469 16.890625 16.359375 16.820312 17.992188 C 16.027344 16.359375 14.605469 15.125 12.882812 14.585938 C 11.160156 14.042969 9.289062 14.238281 7.714844 15.125 L 8.875 18.320312 L 6.488281 16.019531 C 5.210938 17.195312 4.445312 18.832031 4.367188 20.574219 C 4.335938 21.183594 4.386719 21.796875 4.527344 22.394531 C 5.140625 25.027344 7.289062 27.015625 9.949219 27.410156 C 12.613281 27.808594 15.242188 26.53125 16.589844 24.191406 C 16.589844 24.355469 16.578125 24.519531 16.574219 24.6875 C 16.53125 26.398438 16.476562 28.53125 17.324219 30.433594 C 17.898438 31.722656 18.824219 32.769531 19.734375 33.710938 C 20.332031 34.320312 20.949219 34.910156 21.582031 35.484375 C 22.203125 36.324219 23.015625 37.003906 23.949219 37.46875 C 24.988281 38.269531 26.066406 39.027344 27.175781 39.726562 L 27.871094 40.160156 C 28.496094 40.550781 29.136719 40.949219 29.765625 41.363281 C 29.65625 41.355469 29.546875 41.34375 29.433594 41.335938 C 26.582031 41.203125 23.96875 42.941406 22.976562 45.632812 L 27.074219 48.988281 L 22.566406 47.933594 C 22.566406 50.203125 23.726562 52.308594 25.636719 53.515625 C 27.546875 54.722656 29.9375 54.859375 31.972656 53.875 L 31.667969 54.257812 C 31.464844 54.507812 31.265625 54.757812 31.070312 55.007812 C 28.402344 58.40625 27.660156 61.628906 28.980469 64.085938 L 30.585938 63.214844 C 29.300781 60.824219 31.234375 57.757812 32.503906 56.144531 C 32.695312 55.902344 32.890625 55.65625 33.089844 55.40625 C 34.792969 53.28125 36.726562 50.867188 36.679688 47.90625 C 36.609375 43.441406 32.300781 40.75 28.839844 38.59375 Z M 28.839844 38.59375 "/>
<path style=" stroke:none;fill-rule:nonzero;fill:rgb(24.705882%,23.921569%,33.72549%);fill-opacity:1;" d="M 129 63.632812 C 129 62.351562 100.121094 61.316406 64.5 61.316406 C 28.878906 61.316406 0 62.351562 0 63.632812 C 0 64.910156 28.878906 65.945312 64.5 65.945312 C 100.121094 65.945312 129 64.910156 129 63.632812 Z M 129 63.632812 "/>
<path style="fill:none;stroke-width:4;stroke-linecap:butt;stroke-linejoin:miter;stroke:rgb(24.705882%,23.921569%,33.72549%);stroke-opacity:1;stroke-miterlimit:10;" d="M 119.883509 721.42371 C 116.889686 715.89317 120.311198 709.157256 124.196039 704.229403 C 128.080881 699.337003 132.785459 694.231889 132.714178 687.956854 C 132.535974 678.952 122.984254 673.634174 115.357134 668.84813 C 109.690256 665.338364 104.486707 661.119555 99.817769 656.333511 C 97.857528 654.52545 96.218054 652.398319 95.006268 649.987571 C 93.402435 646.477805 93.473716 642.471709 93.544998 638.642874 C 93.901405 625.773733 94.542938 612.975497 95.469598 600.141809 " transform="matrix(0.109601,0,0,0.110184,-1.260408,-16.610184)"/>
<path style=" stroke:none;fill-rule:nonzero;fill:rgb(34.117647%,72.156863%,58.039216%);fill-opacity:1;" d="M 7.617188 49.433594 C 7.640625 48.90625 7.929688 48.429688 8.382812 48.164062 L 8.730469 48.851562 L 8.71875 48.019531 C 8.882812 47.972656 9.054688 47.953125 9.226562 47.960938 C 10.070312 48 10.722656 48.722656 10.683594 49.574219 C 10.644531 50.421875 9.925781 51.078125 9.082031 51.042969 C 8.234375 51.003906 7.582031 50.28125 7.617188 49.433594 Z M 7.617188 49.433594 "/>
<path style=" stroke:none;fill-rule:nonzero;fill:rgb(34.117647%,72.156863%,58.039216%);fill-opacity:1;" d="M 10.355469 59.898438 C 10.691406 60.546875 11.429688 60.871094 12.128906 60.679688 C 12.828125 60.484375 13.296875 59.828125 13.253906 59.097656 C 13.207031 58.371094 12.664062 57.773438 11.945312 57.667969 C 11.230469 57.558594 10.535156 57.96875 10.28125 58.652344 L 11.242188 59.441406 L 10.1875 59.195312 C 10.1875 59.441406 10.246094 59.679688 10.355469 59.898438 Z M 10.355469 59.898438 "/>
<path style=" stroke:none;fill-rule:nonzero;fill:rgb(34.117647%,72.156863%,58.039216%);fill-opacity:1;" d="M 11.125 56.898438 C 11.917969 56.953125 12.621094 56.390625 12.746094 55.605469 C 12.875 54.816406 12.382812 54.0625 11.613281 53.863281 L 11.621094 54.5 L 11.273438 53.808594 C 10.863281 53.785156 10.464844 53.929688 10.164062 54.207031 C 9.863281 54.484375 9.683594 54.871094 9.664062 55.277344 C 9.65625 55.457031 9.679688 55.636719 9.730469 55.808594 C 9.917969 56.429688 10.476562 56.867188 11.125 56.898438 Z M 11.125 56.898438 "/>
<path style=" stroke:none;fill-rule:nonzero;fill:rgb(34.117647%,72.156863%,58.039216%);fill-opacity:1;" d="M 7.386719 54.398438 C 8.03125 54.421875 8.625 54.035156 8.867188 53.429688 C 9.105469 52.828125 8.945312 52.136719 8.460938 51.703125 C 7.976562 51.269531 7.273438 51.191406 6.703125 51.503906 L 6.976562 52.253906 L 6.417969 51.714844 C 6.117188 51.988281 5.9375 52.375 5.921875 52.78125 C 5.914062 52.925781 5.925781 53.066406 5.960938 53.207031 C 6.113281 53.882812 6.699219 54.367188 7.386719 54.398438 Z M 7.386719 54.398438 "/>
<use xlink:href="#surface6" mask="url(#mask0)"/>
<use xlink:href="#surface9" mask="url(#mask1)"/>
<use xlink:href="#surface12" mask="url(#mask2)"/>
<use xlink:href="#surface15" mask="url(#mask3)"/>
<path style=" stroke:none;fill-rule:nonzero;fill:rgb(39.607843%,38.823529%,50.196078%);fill-opacity:1;" d="M 14.199219 62.179688 C 14.199219 62.179688 12.988281 62.140625 12.621094 61.878906 C 12.253906 61.617188 10.757812 61.304688 10.664062 61.726562 C 10.570312 62.144531 8.839844 63.820312 10.207031 63.824219 C 11.578125 63.832031 13.394531 63.609375 13.757812 63.382812 C 14.125 63.15625 14.199219 62.179688 14.199219 62.179688 Z M 14.199219 62.179688 "/>
<use xlink:href="#surface18" mask="url(#mask4)"/>
<path style=" stroke:none;fill-rule:nonzero;fill:rgb(94.901961%,94.901961%,94.901961%);fill-opacity:1;" d="M 21.035156 12.257812 L 107.964844 12.257812 C 109.203125 12.257812 110.203125 13.265625 110.203125 14.507812 L 110.203125 60.25 C 110.203125 61.496094 109.203125 62.5 107.964844 62.5 L 21.035156 62.5 C 19.796875 62.5 18.796875 61.496094 18.796875 60.25 L 18.796875 14.507812 C 18.796875 13.265625 19.796875 12.257812 21.035156 12.257812 Z M 21.035156 12.257812 "/>
<path style=" stroke:none;fill-rule:nonzero;fill:rgb(42.745098%,45.098039%,100%);fill-opacity:1;" d="M 18.851562 14.738281 L 48.222656 14.738281 L 48.222656 62.558594 L 21.089844 62.558594 C 19.851562 62.558594 18.851562 61.550781 18.851562 60.308594 Z M 18.851562 14.738281 "/>
<path style=" stroke:none;fill-rule:nonzero;fill:rgb(24.705882%,23.921569%,33.72549%);fill-opacity:1;" d="M 110.203125 14.507812 L 110.203125 15.785156 L 18.796875 15.785156 L 18.796875 14.507812 C 18.796875 13.265625 19.796875 12.257812 21.035156 12.257812 L 107.964844 12.257812 C 109.203125 12.257812 110.203125 13.265625 110.203125 14.507812 Z M 110.203125 14.507812 "/>
<path style=" stroke:none;fill-rule:nonzero;fill:rgb(42.745098%,45.098039%,100%);fill-opacity:1;" d="M 21.808594 14.074219 C 21.808594 14.441406 21.515625 14.738281 21.152344 14.738281 C 20.789062 14.738281 20.496094 14.441406 20.496094 14.074219 C 20.496094 13.710938 20.789062 13.414062 21.152344 13.414062 C 21.515625 13.414062 21.808594 13.710938 21.808594 14.074219 Z M 21.808594 14.074219 "/>
<path style=" stroke:none;fill-rule:nonzero;fill:rgb(42.745098%,45.098039%,100%);fill-opacity:1;" d="M 23.453125 14.074219 C 23.453125 14.441406 23.160156 14.738281 22.796875 14.738281 C 22.433594 14.738281 22.140625 14.441406 22.140625 14.074219 C 22.140625 13.710938 22.433594 13.414062 22.796875 13.414062 C 23.160156 13.414062 23.453125 13.710938 23.453125 14.074219 Z M 23.453125 14.074219 "/>
<path style=" stroke:none;fill-rule:nonzero;fill:rgb(42.745098%,45.098039%,100%);fill-opacity:1;" d="M 25.097656 14.074219 C 25.097656 14.441406 24.804688 14.738281 24.441406 14.738281 C 24.078125 14.738281 23.785156 14.441406 23.785156 14.074219 C 23.785156 13.710938 24.078125 13.414062 24.441406 13.414062 C 24.804688 13.414062 25.097656 13.710938 25.097656 14.074219 Z M 25.097656 14.074219 "/>
<path style="fill:none;stroke-width:2;stroke-linecap:butt;stroke-linejoin:miter;stroke:rgb(94.901961%,94.901961%,94.901961%);stroke-opacity:1;stroke-miterlimit:10;" d="M 387.509872 489.991892 C 387.509872 526.720348 357.714208 556.500178 321.004239 556.500178 C 284.25863 556.500178 254.498607 526.720348 254.498607 489.991892 C 254.498607 453.263435 284.25863 423.483606 321.004239 423.483606 C 357.749849 423.483606 387.509872 453.263435 387.509872 489.991892 Z M 387.509872 489.991892 " transform="matrix(0.109601,0,0,0.110184,-1.260408,-16.610184)"/>
<path style="fill:none;stroke-width:2;stroke-linecap:round;stroke-linejoin:round;stroke:rgb(94.901961%,94.901961%,94.901961%);stroke-opacity:1;stroke-miterlimit:4;" d="M 325.388051 467.231593 L 333.692345 480.242543 L 369.226169 535.831558 C 355.326278 550.437855 335.581305 557.953717 315.479924 556.287464 C 295.414184 554.621212 277.166122 543.950107 265.903646 527.252131 L 309.420997 442.308712 L 310.347656 443.726799 " transform="matrix(0.109601,0,0,0.110184,-1.260408,-16.610184)"/>
<path style="fill:none;stroke-width:2;stroke-linecap:butt;stroke-linejoin:miter;stroke:rgb(94.901961%,94.901961%,94.901961%);stroke-opacity:1;stroke-miterlimit:10;" d="M 385.300145 507.008937 C 382.448886 517.821851 376.92457 527.713009 369.226169 535.831558 L 333.692345 480.242543 L 349.374273 455.46147 C 349.481195 455.248757 349.69504 455.142401 349.908884 455.142401 C 350.15837 455.142401 350.336573 455.248757 350.479136 455.46147 C 353.758085 460.318419 371.008206 485.985795 385.300145 507.008937 Z M 385.300145 507.008937 " transform="matrix(0.109601,0,0,0.110184,-1.260408,-16.610184)"/>
<path style="fill:none;stroke-width:2;stroke-linecap:butt;stroke-linejoin:miter;stroke:rgb(94.901961%,94.901961%,94.901961%);stroke-opacity:1;stroke-miterlimit:10;" d="M 337.505905 452.483487 C 337.505905 459.680279 332.409278 465.848958 325.388051 467.231593 L 310.383297 443.726799 C 314.196857 438.444425 320.968599 436.24639 327.170088 438.231712 C 333.335938 440.217034 337.541546 445.995739 337.541546 452.483487 Z M 337.505905 452.483487 " transform="matrix(0.109601,0,0,0.110184,-1.260408,-16.610184)"/>
<path style=" stroke:none;fill-rule:nonzero;fill:rgb(24.705882%,23.921569%,33.72549%);fill-opacity:1;" d="M 60.5 28.910156 C 60.460938 28.910156 60.335938 28.910156 60.300781 28.910156 L 59.574219 28.929688 C 59.566406 28.929688 59.5625 28.925781 59.558594 28.917969 L 58.472656 27.289062 C 58.4375 27.238281 58.382812 27.207031 58.320312 27.207031 L 58.058594 27.207031 C 57.996094 27.207031 57.972656 27.269531 57.996094 27.328125 L 58.554688 28.925781 C 58.558594 28.933594 58.554688 28.941406 58.550781 28.949219 C 58.546875 28.953125 58.542969 28.957031 58.535156 28.957031 L 57.167969 28.976562 C 57.140625 28.980469 57.113281 28.964844 57.097656 28.945312 L 56.683594 28.441406 C 56.648438 28.394531 56.597656 28.371094 56.542969 28.371094 L 56.355469 28.371094 C 56.339844 28.371094 56.328125 28.378906 56.320312 28.390625 C 56.3125 28.402344 56.308594 28.417969 56.3125 28.429688 L 56.53125 29.203125 C 56.550781 29.246094 56.550781 29.292969 56.53125 29.335938 L 56.3125 30.105469 C 56.308594 30.121094 56.3125 30.136719 56.320312 30.148438 C 56.328125 30.160156 56.339844 30.164062 56.355469 30.164062 L 56.542969 30.164062 C 56.597656 30.164062 56.648438 30.140625 56.683594 30.097656 L 57.101562 29.585938 C 57.121094 29.5625 57.148438 29.550781 57.175781 29.550781 L 58.535156 29.578125 C 58.539062 29.582031 58.546875 29.585938 58.550781 29.589844 C 58.554688 29.597656 58.554688 29.605469 58.554688 29.609375 L 57.996094 31.210938 C 57.972656 31.269531 57.996094 31.332031 58.054688 31.332031 L 58.320312 31.332031 C 58.382812 31.332031 58.4375 31.300781 58.472656 31.246094 L 59.558594 29.613281 C 59.5625 29.609375 59.566406 29.605469 59.574219 29.605469 L 60.300781 29.625 C 60.335938 29.625 60.460938 29.625 60.5 29.625 C 60.992188 29.625 61.304688 29.464844 61.304688 29.265625 C 61.304688 29.066406 60.992188 28.910156 60.5 28.910156 Z M 60.5 28.910156 "/>
<path style=" stroke:none;fill-rule:nonzero;fill:rgb(24.705882%,23.921569%,33.72549%);fill-opacity:1;" d="M 58.835938 42.101562 C 58.820312 42.089844 58.796875 42.089844 58.78125 42.101562 L 57.039062 43.5 C 57.03125 43.511719 57.023438 43.523438 57.023438 43.535156 L 57.023438 46.113281 C 57.023438 46.125 57.035156 46.136719 57.046875 46.136719 L 58.25 46.136719 C 58.265625 46.136719 58.273438 46.125 58.273438 46.113281 L 58.273438 44.542969 C 58.273438 44.53125 58.285156 44.519531 58.296875 44.519531 L 59.324219 44.519531 C 59.335938 44.519531 59.34375 44.53125 59.34375 44.542969 L 59.34375 46.109375 C 59.34375 46.125 59.355469 46.132812 59.367188 46.132812 L 60.570312 46.132812 C 60.585938 46.132812 60.59375 46.125 60.59375 46.109375 L 60.59375 43.53125 C 60.59375 43.519531 60.585938 43.507812 60.578125 43.5 Z M 58.835938 42.101562 "/>
<path style=" stroke:none;fill-rule:nonzero;fill:rgb(24.705882%,23.921569%,33.72549%);fill-opacity:1;" d="M 61.070312 43.226562 L 58.960938 41.527344 C 58.917969 41.492188 58.863281 41.472656 58.808594 41.472656 C 58.753906 41.472656 58.699219 41.492188 58.65625 41.527344 L 57.738281 42.277344 L 57.738281 41.804688 C 57.738281 41.796875 57.734375 41.792969 57.730469 41.789062 C 57.726562 41.785156 57.722656 41.78125 57.714844 41.78125 L 57.046875 41.78125 C 57.042969 41.78125 57.035156 41.785156 57.03125 41.789062 C 57.027344 41.792969 57.023438 41.796875 57.023438 41.804688 L 57.023438 42.839844 L 56.550781 43.230469 C 56.515625 43.257812 56.492188 43.296875 56.492188 43.34375 C 56.488281 43.386719 56.503906 43.429688 56.535156 43.460938 C 56.5625 43.492188 56.605469 43.507812 56.644531 43.507812 C 56.679688 43.507812 56.714844 43.496094 56.742188 43.472656 L 58.792969 41.816406 C 58.796875 41.8125 58.804688 41.8125 58.808594 41.816406 C 58.8125 41.8125 58.816406 41.8125 58.824219 41.816406 L 60.875 43.46875 C 60.921875 43.503906 60.988281 43.511719 61.042969 43.484375 C 61.097656 43.457031 61.132812 43.398438 61.128906 43.335938 C 61.125 43.292969 61.101562 43.253906 61.070312 43.226562 Z M 61.070312 43.226562 "/>
<use xlink:href="#surface21" mask="url(#mask5)"/>
<use xlink:href="#surface24" mask="url(#mask6)"/>
<path style=" stroke:none;fill-rule:nonzero;fill:rgb(42.745098%,45.098039%,100%);fill-opacity:1;" d="M 96.367188 30.824219 L 104.09375 30.824219 C 104.167969 30.824219 104.230469 30.886719 104.230469 30.960938 L 104.230469 33.441406 C 104.230469 33.515625 104.167969 33.578125 104.09375 33.578125 L 96.367188 33.578125 C 96.289062 33.578125 96.230469 33.515625 96.230469 33.441406 L 96.230469 30.960938 C 96.230469 30.886719 96.289062 30.824219 96.367188 30.824219 Z M 96.367188 30.824219 "/>
<path style=" stroke:none;fill-rule:nonzero;fill:rgb(42.745098%,45.098039%,100%);fill-opacity:1;" d="M 96.367188 45.367188 L 104.09375 45.367188 C 104.167969 45.367188 104.230469 45.429688 104.230469 45.503906 L 104.230469 47.984375 C 104.230469 48.0625 104.167969 48.121094 104.09375 48.121094 L 96.367188 48.121094 C 96.289062 48.121094 96.230469 48.0625 96.230469 47.984375 L 96.230469 45.503906 C 96.230469 45.429688 96.289062 45.367188 96.367188 45.367188 Z M 96.367188 45.367188 "/>
<path style=" stroke:none;fill-rule:nonzero;fill:rgb(100%,75.686275%,78.039216%);fill-opacity:1;" d="M 105.949219 50.261719 L 105.757812 50.484375 C 105.757812 50.484375 103.453125 50.703125 103.546875 51.078125 C 103.636719 51.453125 106.324219 50.578125 106.324219 50.578125 Z M 105.949219 50.261719 "/>
<path style=" stroke:none;fill-rule:nonzero;fill:rgb(100%,39.607843%,51.764706%);fill-opacity:1;" d="M 110.132812 50.074219 C 110.132812 50.074219 107.664062 50.957031 106.324219 50.578125 L 106.945312 51.832031 C 106.945312 51.832031 110.132812 51.738281 110.695312 51.171875 C 111.253906 50.605469 110.132812 50.074219 110.132812 50.074219 Z M 110.132812 50.074219 "/>
<use xlink:href="#surface27" mask="url(#mask7)"/>
<path style=" stroke:none;fill-rule:nonzero;fill:rgb(100%,75.686275%,78.039216%);fill-opacity:1;" d="M 110.113281 41.679688 C 110.113281 42.601562 109.375 43.34375 108.460938 43.34375 C 107.546875 43.34375 106.808594 42.601562 106.808594 41.679688 C 106.808594 40.761719 107.546875 40.019531 108.460938 40.019531 C 109.375 40.019531 110.113281 40.761719 110.113281 41.679688 Z M 110.113281 41.679688 "/>
<path style=" stroke:none;fill-rule:nonzero;fill:rgb(100%,75.686275%,78.039216%);fill-opacity:1;" d="M 109.875 43.242188 C 109.933594 43.351562 110.007812 43.453125 110.09375 43.542969 C 110.320312 43.789062 110.589844 43.992188 110.890625 44.140625 C 109.953125 44.332031 109.003906 44.476562 108.050781 44.566406 C 108.152344 44.207031 108.019531 43.828125 107.839844 43.503906 C 107.664062 43.179688 107.433594 42.875 107.324219 42.523438 L 108.441406 42.554688 C 108.644531 42.554688 108.847656 42.566406 109.050781 42.554688 C 109.203125 42.546875 109.453125 42.453125 109.597656 42.488281 C 109.886719 42.558594 109.742188 42.976562 109.875 43.242188 Z M 109.875 43.242188 "/>
<path style=" stroke:none;fill-rule:nonzero;fill:rgb(34.117647%,35.294118%,53.72549%);fill-opacity:1;" d="M 113.628906 51.046875 L 114.5625 52.175781 C 114.5625 52.175781 116.121094 55.847656 112.722656 56.222656 C 109.328125 56.59375 106.792969 55.9375 106.792969 55.9375 C 106.792969 55.9375 105.421875 55.277344 105.390625 55.78125 C 105.355469 56.285156 105.234375 57.695312 104.484375 59.074219 L 103.824219 60.582031 C 103.621094 60.800781 103.53125 61.101562 103.578125 61.398438 C 103.671875 61.871094 101.484375 62.027344 101.515625 61.398438 C 101.515625 61.398438 101.828125 60.867188 101.828125 60.550781 C 101.828125 60.238281 102.328125 59.484375 102.328125 59.484375 L 103.234375 54.96875 C 103.234375 54.96875 103.171875 52.644531 105.292969 53.085938 C 107.417969 53.523438 110.445312 52.988281 110.445312 52.988281 L 111.128906 50.574219 Z M 113.628906 51.046875 "/>
<use xlink:href="#surface30" mask="url(#mask8)"/>
<path style=" stroke:none;fill-rule:nonzero;fill:rgb(23.529412%,20.784314%,29.803922%);fill-opacity:1;" d="M 117.855469 54.875 L 117.855469 55.816406 C 117.855469 55.878906 117.808594 55.929688 117.746094 55.929688 C 117.6875 55.929688 117.636719 55.878906 117.636719 55.816406 L 117.636719 55.035156 C 117.636719 54.972656 117.585938 54.921875 117.527344 54.921875 L 115.464844 54.921875 C 115.402344 54.921875 115.355469 54.972656 115.355469 55.035156 L 115.355469 55.816406 C 115.355469 55.878906 115.304688 55.929688 115.246094 55.929688 C 115.183594 55.929688 115.136719 55.878906 115.136719 55.816406 L 115.136719 54.875 C 115.136719 54.816406 115.183594 54.765625 115.246094 54.765625 L 117.742188 54.765625 C 117.773438 54.765625 117.800781 54.777344 117.820312 54.796875 C 117.84375 54.816406 117.855469 54.847656 117.855469 54.875 Z M 117.855469 54.875 "/>
<path style=" stroke:none;fill-rule:nonzero;fill:rgb(24.705882%,23.921569%,33.72549%);fill-opacity:1;" d="M 108.25 62.917969 C 108.234375 63.253906 108.480469 63.542969 108.8125 63.582031 L 123.59375 63.949219 C 123.605469 63.949219 123.621094 63.945312 123.628906 63.933594 C 123.636719 63.929688 123.640625 63.921875 123.640625 63.914062 L 123.835938 62.996094 C 123.847656 62.945312 123.851562 62.890625 123.851562 62.835938 L 123.535156 56.1875 C 123.53125 56.078125 123.5 55.96875 123.445312 55.878906 L 123.226562 55.507812 C 123.21875 55.496094 123.207031 55.484375 123.199219 55.476562 C 123.179688 55.460938 123.15625 55.453125 123.132812 55.453125 L 109.210938 55.664062 C 108.875 55.667969 108.601562 55.933594 108.585938 56.273438 Z M 108.25 62.917969 "/>
<use xlink:href="#surface33" mask="url(#mask9)"/>
<path style=" stroke:none;fill-rule:nonzero;fill:rgb(34.117647%,35.294118%,53.72549%);fill-opacity:1;" d="M 110.117188 50.964844 C 110.117188 50.964844 112.972656 49.886719 114.5625 52.175781 C 114.5625 52.175781 114.96875 55.722656 113.347656 55.878906 C 111.722656 56.035156 109.601562 56.003906 109.101562 55.472656 C 108.601562 54.9375 105.449219 53.433594 105.449219 53.433594 C 105.449219 53.433594 103.878906 52.628906 103.574219 53.671875 C 103.265625 54.71875 103.234375 54.96875 103.234375 54.96875 C 103.234375 54.96875 101.609375 56.164062 100.953125 56.382812 C 100.953125 56.382812 100.515625 57.011719 100.269531 57.011719 C 100.019531 57.011719 98.488281 57.355469 98.644531 56.195312 L 101.171875 53.871094 L 103.699219 51.394531 C 103.699219 51.394531 104.417969 50.328125 106.261719 50.890625 C 107.484375 51.257812 108.722656 51.558594 109.976562 51.800781 Z M 110.117188 50.964844 "/>
<path style=" stroke:none;fill-rule:nonzero;fill:rgb(79.607843%,80.784314%,85.490196%);fill-opacity:1;" d="M 103.484375 61.339844 C 103.484375 61.339844 104.074219 62.847656 103.578125 63.035156 C 103.078125 63.222656 102.015625 63.097656 102.015625 63.097656 C 102.015625 63.097656 100.765625 62.941406 100.457031 62.972656 C 100.144531 63.003906 98.863281 62.75 99.050781 62.25 C 99.238281 61.75 100.207031 61.875 100.207031 61.875 L 101.082031 61.464844 C 101.082031 61.464844 101.175781 61.152344 101.394531 61.277344 C 101.613281 61.402344 102.234375 61.875 103.484375 61.339844 Z M 103.484375 61.339844 "/>
<path style=" stroke:none;fill-rule:nonzero;fill:rgb(79.607843%,80.784314%,85.490196%);fill-opacity:1;" d="M 100.238281 56.882812 C 100.238281 56.882812 100.894531 58.355469 99.832031 58.230469 C 98.769531 58.105469 97.957031 57.886719 97.648438 57.855469 C 97.335938 57.824219 96.496094 57.535156 96.628906 56.953125 C 96.632812 56.917969 96.636719 56.878906 96.636719 56.84375 C 96.636719 56.765625 96.746094 56.613281 97.585938 56.636719 C 97.585938 56.636719 98.207031 56.636719 98.460938 56.195312 C 98.457031 56.195312 99.394531 57.386719 100.238281 56.882812 Z M 100.238281 56.882812 "/>
<path style=" stroke:none;fill-rule:nonzero;fill:rgb(100%,39.607843%,51.764706%);fill-opacity:1;" d="M 107.320312 44.332031 C 107.320312 44.332031 109.570312 42.921875 111.441406 44.332031 C 113.316406 45.742188 114.5625 52.175781 114.5625 52.175781 L 110.222656 51.203125 C 110.222656 51.203125 110.039062 50.453125 109.785156 50.324219 C 109.535156 50.195312 109.503906 49.660156 109.503906 49.660156 C 109.503906 49.660156 108.164062 49.253906 108.257812 47.683594 C 108.347656 46.117188 107.320312 44.332031 107.320312 44.332031 Z M 107.320312 44.332031 "/>
<path style=" stroke:none;fill-rule:nonzero;fill:rgb(100%,39.607843%,51.764706%);fill-opacity:1;" d="M 108.476562 44.394531 L 107.320312 44.394531 C 107.320312 44.394531 106.636719 45.179688 106.542969 47.15625 L 106.167969 48.730469 C 106.167969 48.730469 105.386719 50.613281 105.855469 50.925781 C 106.324219 51.238281 107.230469 51.207031 107.414062 50.582031 C 107.601562 49.953125 108.886719 46.308594 108.886719 46.308594 Z M 108.476562 44.394531 "/>
<path style=" stroke:none;fill-rule:nonzero;fill:rgb(23.529412%,20.784314%,29.803922%);fill-opacity:1;" d="M 108.144531 39.515625 C 108.730469 39.277344 109.398438 39.386719 109.875 39.804688 C 110.472656 40.339844 110.59375 41.21875 110.75 42.007812 C 110.910156 42.796875 111.207031 43.683594 111.957031 43.992188 C 111.621094 44.035156 111.28125 44.027344 110.949219 43.960938 L 112.074219 44.972656 L 110.179688 44.351562 C 109.585938 44.160156 108.960938 43.960938 108.347656 44.070312 C 107.328125 44.253906 106.617188 45.21875 105.640625 45.554688 L 105.75 45.019531 L 105.089844 45.019531 C 105.25 44.90625 105.378906 44.753906 105.46875 44.582031 C 105.40625 44.503906 105.316406 44.457031 105.214844 44.449219 C 104.941406 42.730469 105.957031 41.03125 107.277344 39.910156 C 107.539062 39.691406 107.828125 39.480469 108.160156 39.425781 C 108.496094 39.371094 108.890625 39.519531 109.007812 39.839844 "/>
</g>
</svg>
